  0
SECTION
  2
HEADER
  9
$ANGBASE
  50
0.0
  9
$ANGDIR
  70
1
  9
$MEASUREMENT
  70
1
  0
ENDSEC
  0
SECTION
  2
TABLES
  0
TABLE
  2
LTYPE
  70
4
  0
LTYPE
  5
40F
  2
CONTINUOUS
  70
0
  3
Solid line
  72
65
  73
0
  40
0.0
  0
LTYPE
  5
410
  2
DASHDOT
 70
0
  3
Dash Dot ____ _ ____ _
 72
65
 73
4
 40
2.0
 49
1.25
 49
-0.25
 49
0.25
 49
-0.25
  0
LTYPE
  5
411
  2
DASHED
 70
0
  3
Dashed __ __ __ __ __
 72
65
 73
2
 40
0.75
 49
0.5
 49
-0.25
  0
LTYPE
  5
43B
  2
DOTTED
 70
0
  3
Dotted .  .  .  .
 72
65
 73
2
 40
0.2
 49
0.0
 49
-0.2
  0
ENDTAB
  0
TABLE
  2
STYLE
  70
4
  0
STYLE
  2
KICAD
  70
0
  40
0
  41
1
  42
1
  50
0
  71
0
  3
isocp.shx
  0
STYLE
  2
KICADB
  70
0
  40
0
  41
1
  42
1
  50
0
  71
0
  3
isocp.shx
  0
STYLE
  2
KICADI
  70
0
  40
0
  41
1
  42
1
  50
15
  71
0
  3
isocp.shx
  0
STYLE
  2
KICADBI
  70
0
  40
0
  41
1
  42
1
  50
15
  71
0
  3
isocp.shx
  0
ENDTAB
  0
TABLE
  2
LAYER
  70
1
  0
LAYER
  2
BLACK
  70
0
  62
7
  6
CONTINUOUS
  0
ENDTAB
  0
ENDSEC
  0
SECTION
  2
ENTITIES
0
LINE
8
BLACK
6
CONTINUOUS
10
45.6195
20
-100.377
11
45.6196
21
-100.377
0
LINE
8
BLACK
6
CONTINUOUS
10
45.6196
20
-100.377
11
45.6266
21
-100.378
0
LINE
8
BLACK
6
CONTINUOUS
10
45.6266
20
-100.378
11
45.634
21
-100.379
0
LINE
8
BLACK
6
CONTINUOUS
10
45.634
20
-100.379
11
45.6341
21
-100.379
0
LINE
8
BLACK
6
CONTINUOUS
10
45.6341
20
-100.379
11
45.6341
21
-100.379
0
LINE
8
BLACK
6
CONTINUOUS
10
45.6341
20
-100.379
11
45.6412
21
-100.381
0
LINE
8
BLACK
6
CONTINUOUS
10
45.6412
20
-100.381
11
45.648
21
-100.383
0
LINE
8
BLACK
6
CONTINUOUS
10
45.648
20
-100.383
11
45.6481
21
-100.383
0
LINE
8
BLACK
6
CONTINUOUS
10
45.6481
20
-100.383
11
45.6481
21
-100.383
0
LINE
8
BLACK
6
CONTINUOUS
10
45.6481
20
-100.383
11
45.6548
21
-100.387
0
LINE
8
BLACK
6
CONTINUOUS
10
45.6548
20
-100.387
11
45.6609
21
-100.39
0
LINE
8
BLACK
6
CONTINUOUS
10
45.6609
20
-100.39
11
45.6609
21
-100.39
0
LINE
8
BLACK
6
CONTINUOUS
10
45.6609
20
-100.39
11
45.661
21
-100.39
0
LINE
8
BLACK
6
CONTINUOUS
10
45.661
20
-100.39
11
45.6665
21
-100.395
0
LINE
8
BLACK
6
CONTINUOUS
10
45.6665
20
-100.395
11
45.6722
21
-100.399
0
LINE
8
BLACK
6
CONTINUOUS
10
45.6722
20
-100.399
11
45.6722
21
-100.399
0
LINE
8
BLACK
6
CONTINUOUS
10
45.6722
20
-100.399
11
45.6723
21
-100.4
0
LINE
8
BLACK
6
CONTINUOUS
10
45.6723
20
-100.4
11
45.6767
21
-100.405
0
LINE
8
BLACK
6
CONTINUOUS
10
45.6767
20
-100.405
11
45.6815
21
-100.411
0
LINE
8
BLACK
6
CONTINUOUS
10
45.6815
20
-100.411
11
45.7726
21
-100.547
0
LINE
8
BLACK
6
CONTINUOUS
10
45.7726
20
-100.547
11
45.8539
21
-100.629
0
LINE
8
BLACK
6
CONTINUOUS
10
45.8539
20
-100.629
11
45.9383
21
-100.671
0
LINE
8
BLACK
6
CONTINUOUS
10
45.9383
20
-100.671
11
45.9392
21
-100.671
0
LINE
8
BLACK
6
CONTINUOUS
10
45.9392
20
-100.671
11
45.9515
21
-100.679
0
LINE
8
BLACK
6
CONTINUOUS
10
45.9515
20
-100.679
11
45.962
21
-100.69
0
LINE
8
BLACK
6
CONTINUOUS
10
45.962
20
-100.69
11
45.9703
21
-100.702
0
LINE
8
BLACK
6
CONTINUOUS
10
45.9703
20
-100.702
11
45.9762
21
-100.715
0
LINE
8
BLACK
6
CONTINUOUS
10
45.9762
20
-100.715
11
45.9793
21
-100.729
0
LINE
8
BLACK
6
CONTINUOUS
10
45.9793
20
-100.729
11
45.9795
21
-100.744
0
LINE
8
BLACK
6
CONTINUOUS
10
45.9795
20
-100.744
11
45.9769
21
-100.758
0
LINE
8
BLACK
6
CONTINUOUS
10
45.9769
20
-100.758
11
45.9716
21
-100.772
0
LINE
8
BLACK
6
CONTINUOUS
10
45.9716
20
-100.772
11
45.9637
21
-100.784
0
LINE
8
BLACK
6
CONTINUOUS
10
45.9637
20
-100.784
11
45.9536
21
-100.795
0
LINE
8
BLACK
6
CONTINUOUS
10
45.9536
20
-100.795
11
45.9416
21
-100.803
0
LINE
8
BLACK
6
CONTINUOUS
10
45.9416
20
-100.803
11
45.9282
21
-100.809
0
LINE
8
BLACK
6
CONTINUOUS
10
45.9282
20
-100.809
11
45.9139
21
-100.813
0
LINE
8
BLACK
6
CONTINUOUS
10
45.9139
20
-100.813
11
45.8993
21
-100.813
0
LINE
8
BLACK
6
CONTINUOUS
10
45.8993
20
-100.813
11
45.8849
21
-100.81
0
LINE
8
BLACK
6
CONTINUOUS
10
45.8849
20
-100.81
11
45.8712
21
-100.805
0
LINE
8
BLACK
6
CONTINUOUS
10
45.8712
20
-100.805
11
45.776
21
-100.758
0
LINE
8
BLACK
6
CONTINUOUS
10
45.776
20
-100.758
11
45.775
21
-100.757
0
LINE
8
BLACK
6
CONTINUOUS
10
45.775
20
-100.757
11
45.7715
21
-100.755
0
LINE
8
BLACK
6
CONTINUOUS
10
45.7715
20
-100.755
11
45.7678
21
-100.753
0
LINE
8
BLACK
6
CONTINUOUS
10
45.7678
20
-100.753
11
45.7654
21
-100.751
0
LINE
8
BLACK
6
CONTINUOUS
10
45.7654
20
-100.751
11
45.7628
21
-100.749
0
LINE
8
BLACK
6
CONTINUOUS
10
45.7628
20
-100.749
11
45.7597
21
-100.746
0
LINE
8
BLACK
6
CONTINUOUS
10
45.7597
20
-100.746
11
45.7565
21
-100.744
0
LINE
8
BLACK
6
CONTINUOUS
10
45.7565
20
-100.744
11
45.694
21
-100.681
0
LINE
8
BLACK
6
CONTINUOUS
10
45.694
20
-100.681
11
45.694
21
-101.377
0
LINE
8
BLACK
6
CONTINUOUS
10
45.694
20
-101.377
11
45.9048
21
-101.377
0
LINE
8
BLACK
6
CONTINUOUS
10
45.9048
20
-101.377
11
45.9058
21
-101.377
0
LINE
8
BLACK
6
CONTINUOUS
10
45.9058
20
-101.377
11
45.9204
21
-101.379
0
LINE
8
BLACK
6
CONTINUOUS
10
45.9204
20
-101.379
11
45.9343
21
-101.383
0
LINE
8
BLACK
6
CONTINUOUS
10
45.9343
20
-101.383
11
45.9471
21
-101.39
0
LINE
8
BLACK
6
CONTINUOUS
10
45.9471
20
-101.39
11
45.9583
21
-101.4
0
LINE
8
BLACK
6
CONTINUOUS
10
45.9583
20
-101.4
11
45.9675
21
-101.411
0
LINE
8
BLACK
6
CONTINUOUS
10
45.9675
20
-101.411
11
45.9743
21
-101.424
0
LINE
8
BLACK
6
CONTINUOUS
10
45.9743
20
-101.424
11
45.9784
21
-101.438
0
LINE
8
BLACK
6
CONTINUOUS
10
45.9784
20
-101.438
11
45.9798
21
-101.453
0
LINE
8
BLACK
6
CONTINUOUS
10
45.9798
20
-101.453
11
45.9782
21
-101.467
0
LINE
8
BLACK
6
CONTINUOUS
10
45.9782
20
-101.467
11
45.9739
21
-101.481
0
LINE
8
BLACK
6
CONTINUOUS
10
45.9739
20
-101.481
11
45.9669
21
-101.494
0
LINE
8
BLACK
6
CONTINUOUS
10
45.9669
20
-101.494
11
45.9576
21
-101.506
0
LINE
8
BLACK
6
CONTINUOUS
10
45.9576
20
-101.506
11
45.9463
21
-101.515
0
LINE
8
BLACK
6
CONTINUOUS
10
45.9463
20
-101.515
11
45.9333
21
-101.522
0
LINE
8
BLACK
6
CONTINUOUS
10
45.9333
20
-101.522
11
45.9193
21
-101.526
0
LINE
8
BLACK
6
CONTINUOUS
10
45.9193
20
-101.526
11
45.9048
21
-101.527
0
LINE
8
BLACK
6
CONTINUOUS
10
45.9048
20
-101.527
11
45.3333
21
-101.527
0
LINE
8
BLACK
6
CONTINUOUS
10
45.3333
20
-101.527
11
45.3323
21
-101.527
0
LINE
8
BLACK
6
CONTINUOUS
10
45.3323
20
-101.527
11
45.3177
21
-101.526
0
LINE
8
BLACK
6
CONTINUOUS
10
45.3177
20
-101.526
11
45.3038
21
-101.521
0
LINE
8
BLACK
6
CONTINUOUS
10
45.3038
20
-101.521
11
45.291
21
-101.514
0
LINE
8
BLACK
6
CONTINUOUS
10
45.291
20
-101.514
11
45.2797
21
-101.505
0
LINE
8
BLACK
6
CONTINUOUS
10
45.2797
20
-101.505
11
45.2706
21
-101.493
0
LINE
8
BLACK
6
CONTINUOUS
10
45.2706
20
-101.493
11
45.2638
21
-101.48
0
LINE
8
BLACK
6
CONTINUOUS
10
45.2638
20
-101.48
11
45.2597
21
-101.466
0
LINE
8
BLACK
6
CONTINUOUS
10
45.2597
20
-101.466
11
45.2583
21
-101.452
0
LINE
8
BLACK
6
CONTINUOUS
10
45.2583
20
-101.452
11
45.2599
21
-101.437
0
LINE
8
BLACK
6
CONTINUOUS
10
45.2599
20
-101.437
11
45.2642
21
-101.423
0
LINE
8
BLACK
6
CONTINUOUS
10
45.2642
20
-101.423
11
45.2712
21
-101.41
0
LINE
8
BLACK
6
CONTINUOUS
10
45.2712
20
-101.41
11
45.2805
21
-101.399
0
LINE
8
BLACK
6
CONTINUOUS
10
45.2805
20
-101.399
11
45.2918
21
-101.39
0
LINE
8
BLACK
6
CONTINUOUS
10
45.2918
20
-101.39
11
45.3048
21
-101.383
0
LINE
8
BLACK
6
CONTINUOUS
10
45.3048
20
-101.383
11
45.3188
21
-101.379
0
LINE
8
BLACK
6
CONTINUOUS
10
45.3188
20
-101.379
11
45.3333
21
-101.377
0
LINE
8
BLACK
6
CONTINUOUS
10
45.3333
20
-101.377
11
45.544
21
-101.377
0
LINE
8
BLACK
6
CONTINUOUS
10
45.544
20
-101.377
11
45.544
21
-100.452
0
LINE
8
BLACK
6
CONTINUOUS
10
45.544
20
-100.452
11
45.5441
21
-100.451
0
LINE
8
BLACK
6
CONTINUOUS
10
45.5441
20
-100.451
11
45.5441
21
-100.451
0
LINE
8
BLACK
6
CONTINUOUS
10
45.5441
20
-100.451
11
45.5441
21
-100.451
0
LINE
8
BLACK
6
CONTINUOUS
10
45.5441
20
-100.451
11
45.5441
21
-100.451
0
LINE
8
BLACK
6
CONTINUOUS
10
45.5441
20
-100.451
11
45.5449
21
-100.444
0
LINE
8
BLACK
6
CONTINUOUS
10
45.5449
20
-100.444
11
45.5457
21
-100.437
0
LINE
8
BLACK
6
CONTINUOUS
10
45.5457
20
-100.437
11
45.5457
21
-100.437
0
LINE
8
BLACK
6
CONTINUOUS
10
45.5457
20
-100.437
11
45.5457
21
-100.437
0
LINE
8
BLACK
6
CONTINUOUS
10
45.5457
20
-100.437
11
45.548
21
-100.43
0
LINE
8
BLACK
6
CONTINUOUS
10
45.548
20
-100.43
11
45.5501
21
-100.423
0
LINE
8
BLACK
6
CONTINUOUS
10
45.5501
20
-100.423
11
45.5501
21
-100.423
0
LINE
8
BLACK
6
CONTINUOUS
10
45.5501
20
-100.423
11
45.5501
21
-100.423
0
LINE
8
BLACK
6
CONTINUOUS
10
45.5501
20
-100.423
11
45.5537
21
-100.416
0
LINE
8
BLACK
6
CONTINUOUS
10
45.5537
20
-100.416
11
45.5571
21
-100.41
0
LINE
8
BLACK
6
CONTINUOUS
10
45.5571
20
-100.41
11
45.5571
21
-100.41
0
LINE
8
BLACK
6
CONTINUOUS
10
45.5571
20
-100.41
11
45.5572
21
-100.41
0
LINE
8
BLACK
6
CONTINUOUS
10
45.5572
20
-100.41
11
45.5618
21
-100.404
0
LINE
8
BLACK
6
CONTINUOUS
10
45.5618
20
-100.404
11
45.5665
21
-100.399
0
LINE
8
BLACK
6
CONTINUOUS
10
45.5665
20
-100.399
11
45.5665
21
-100.399
0
LINE
8
BLACK
6
CONTINUOUS
10
45.5665
20
-100.399
11
45.5666
21
-100.399
0
LINE
8
BLACK
6
CONTINUOUS
10
45.5666
20
-100.399
11
45.5721
21
-100.394
0
LINE
8
BLACK
6
CONTINUOUS
10
45.5721
20
-100.394
11
45.5779
21
-100.39
0
LINE
8
BLACK
6
CONTINUOUS
10
45.5779
20
-100.39
11
45.5779
21
-100.39
0
LINE
8
BLACK
6
CONTINUOUS
10
45.5779
20
-100.39
11
45.578
21
-100.39
0
LINE
8
BLACK
6
CONTINUOUS
10
45.578
20
-100.39
11
45.5843
21
-100.386
0
LINE
8
BLACK
6
CONTINUOUS
10
45.5843
20
-100.386
11
45.5908
21
-100.383
0
LINE
8
BLACK
6
CONTINUOUS
10
45.5908
20
-100.383
11
45.5909
21
-100.383
0
LINE
8
BLACK
6
CONTINUOUS
10
45.5909
20
-100.383
11
45.591
21
-100.383
0
LINE
8
BLACK
6
CONTINUOUS
10
45.591
20
-100.383
11
45.5979
21
-100.381
0
LINE
8
BLACK
6
CONTINUOUS
10
45.5979
20
-100.381
11
45.6049
21
-100.379
0
LINE
8
BLACK
6
CONTINUOUS
10
45.6049
20
-100.379
11
45.6049
21
-100.379
0
LINE
8
BLACK
6
CONTINUOUS
10
45.6049
20
-100.379
11
45.605
21
-100.379
0
LINE
8
BLACK
6
CONTINUOUS
10
45.605
20
-100.379
11
45.6121
21
-100.378
0
LINE
8
BLACK
6
CONTINUOUS
10
45.6121
20
-100.378
11
45.6195
21
-100.377
0
LINE
8
BLACK
6
CONTINUOUS
10
45.6195
20
-100.377
11
45.6195
21
-100.377
0
LINE
8
BLACK
6
CONTINUOUS
10
46.3484
20
-100.379
11
46.3624
21
-100.383
0
LINE
8
BLACK
6
CONTINUOUS
10
46.3624
20
-100.383
11
46.3753
21
-100.39
0
LINE
8
BLACK
6
CONTINUOUS
10
46.3753
20
-100.39
11
46.3866
21
-100.4
0
LINE
8
BLACK
6
CONTINUOUS
10
46.3866
20
-100.4
11
46.3958
21
-100.411
0
LINE
8
BLACK
6
CONTINUOUS
10
46.3958
20
-100.411
11
46.4027
21
-100.424
0
LINE
8
BLACK
6
CONTINUOUS
10
46.4027
20
-100.424
11
46.4069
21
-100.438
0
LINE
8
BLACK
6
CONTINUOUS
10
46.4069
20
-100.438
11
46.4083
21
-100.452
0
LINE
8
BLACK
6
CONTINUOUS
10
46.4083
20
-100.452
11
46.4083
21
-101.154
0
LINE
8
BLACK
6
CONTINUOUS
10
46.4083
20
-101.154
11
46.4465
21
-101.269
0
LINE
8
BLACK
6
CONTINUOUS
10
46.4465
20
-101.269
11
46.5167
21
-101.339
0
LINE
8
BLACK
6
CONTINUOUS
10
46.5167
20
-101.339
11
46.6312
21
-101.377
0
LINE
8
BLACK
6
CONTINUOUS
10
46.6312
20
-101.377
11
46.7143
21
-101.377
0
LINE
8
BLACK
6
CONTINUOUS
10
46.7143
20
-101.377
11
46.7153
21
-101.377
0
LINE
8
BLACK
6
CONTINUOUS
10
46.7153
20
-101.377
11
46.7299
21
-101.379
0
LINE
8
BLACK
6
CONTINUOUS
10
46.7299
20
-101.379
11
46.7438
21
-101.383
0
LINE
8
BLACK
6
CONTINUOUS
10
46.7438
20
-101.383
11
46.7567
21
-101.39
0
LINE
8
BLACK
6
CONTINUOUS
10
46.7567
20
-101.39
11
46.7679
21
-101.4
0
LINE
8
BLACK
6
CONTINUOUS
10
46.7679
20
-101.4
11
46.777
21
-101.411
0
LINE
8
BLACK
6
CONTINUOUS
10
46.777
20
-101.411
11
46.7838
21
-101.424
0
LINE
8
BLACK
6
CONTINUOUS
10
46.7838
20
-101.424
11
46.788
21
-101.438
0
LINE
8
BLACK
6
CONTINUOUS
10
46.788
20
-101.438
11
46.7893
21
-101.453
0
LINE
8
BLACK
6
CONTINUOUS
10
46.7893
20
-101.453
11
46.7878
21
-101.467
0
LINE
8
BLACK
6
CONTINUOUS
10
46.7878
20
-101.467
11
46.7834
21
-101.481
0
LINE
8
BLACK
6
CONTINUOUS
10
46.7834
20
-101.481
11
46.7765
21
-101.494
0
LINE
8
BLACK
6
CONTINUOUS
10
46.7765
20
-101.494
11
46.7671
21
-101.506
0
LINE
8
BLACK
6
CONTINUOUS
10
46.7671
20
-101.506
11
46.7558
21
-101.515
0
LINE
8
BLACK
6
CONTINUOUS
10
46.7558
20
-101.515
11
46.7429
21
-101.522
0
LINE
8
BLACK
6
CONTINUOUS
10
46.7429
20
-101.522
11
46.7289
21
-101.526
0
LINE
8
BLACK
6
CONTINUOUS
10
46.7289
20
-101.526
11
46.7143
21
-101.527
0
LINE
8
BLACK
6
CONTINUOUS
10
46.7143
20
-101.527
11
46.619
21
-101.527
0
LINE
8
BLACK
6
CONTINUOUS
10
46.619
20
-101.527
11
46.618
21
-101.527
0
LINE
8
BLACK
6
CONTINUOUS
10
46.618
20
-101.527
11
46.6138
21
-101.527
0
LINE
8
BLACK
6
CONTINUOUS
10
46.6138
20
-101.527
11
46.6096
21
-101.527
0
LINE
8
BLACK
6
CONTINUOUS
10
46.6096
20
-101.527
11
46.6066
21
-101.526
0
LINE
8
BLACK
6
CONTINUOUS
10
46.6066
20
-101.526
11
46.6035
21
-101.526
0
LINE
8
BLACK
6
CONTINUOUS
10
46.6035
20
-101.526
11
46.5994
21
-101.524
0
LINE
8
BLACK
6
CONTINUOUS
10
46.5994
20
-101.524
11
46.5953
21
-101.524
0
LINE
8
BLACK
6
CONTINUOUS
10
46.5953
20
-101.524
11
46.4525
21
-101.476
0
LINE
8
BLACK
6
CONTINUOUS
10
46.4525
20
-101.476
11
46.4515
21
-101.476
0
LINE
8
BLACK
6
CONTINUOUS
10
46.4515
20
-101.476
11
46.4495
21
-101.475
0
LINE
8
BLACK
6
CONTINUOUS
10
46.4495
20
-101.475
11
46.4474
21
-101.474
0
LINE
8
BLACK
6
CONTINUOUS
10
46.4474
20
-101.474
11
46.4428
21
-101.472
0
LINE
8
BLACK
6
CONTINUOUS
10
46.4428
20
-101.472
11
46.4382
21
-101.469
0
LINE
8
BLACK
6
CONTINUOUS
10
46.4382
20
-101.469
11
46.4364
21
-101.468
0
LINE
8
BLACK
6
CONTINUOUS
10
46.4364
20
-101.468
11
46.4345
21
-101.467
0
LINE
8
BLACK
6
CONTINUOUS
10
46.4345
20
-101.467
11
46.4305
21
-101.464
0
LINE
8
BLACK
6
CONTINUOUS
10
46.4305
20
-101.464
11
46.4264
21
-101.461
0
LINE
8
BLACK
6
CONTINUOUS
10
46.4264
20
-101.461
11
46.4249
21
-101.459
0
LINE
8
BLACK
6
CONTINUOUS
10
46.4249
20
-101.459
11
46.4232
21
-101.458
0
LINE
8
BLACK
6
CONTINUOUS
10
46.4232
20
-101.458
11
46.3279
21
-101.363
0
LINE
8
BLACK
6
CONTINUOUS
10
46.3279
20
-101.363
11
46.3272
21
-101.362
0
LINE
8
BLACK
6
CONTINUOUS
10
46.3272
20
-101.362
11
46.3258
21
-101.36
0
LINE
8
BLACK
6
CONTINUOUS
10
46.3258
20
-101.36
11
46.3242
21
-101.359
0
LINE
8
BLACK
6
CONTINUOUS
10
46.3242
20
-101.359
11
46.3213
21
-101.354
0
LINE
8
BLACK
6
CONTINUOUS
10
46.3213
20
-101.354
11
46.3181
21
-101.35
0
LINE
8
BLACK
6
CONTINUOUS
10
46.3181
20
-101.35
11
46.317
21
-101.348
0
LINE
8
BLACK
6
CONTINUOUS
10
46.317
20
-101.348
11
46.3158
21
-101.347
0
LINE
8
BLACK
6
CONTINUOUS
10
46.3158
20
-101.347
11
46.3137
21
-101.342
0
LINE
8
BLACK
6
CONTINUOUS
10
46.3137
20
-101.342
11
46.3113
21
-101.337
0
LINE
8
BLACK
6
CONTINUOUS
10
46.3113
20
-101.337
11
46.3107
21
-101.335
0
LINE
8
BLACK
6
CONTINUOUS
10
46.3107
20
-101.335
11
46.3098
21
-101.333
0
LINE
8
BLACK
6
CONTINUOUS
10
46.3098
20
-101.333
11
46.2622
21
-101.19
0
LINE
8
BLACK
6
CONTINUOUS
10
46.2622
20
-101.19
11
46.2619
21
-101.189
0
LINE
8
BLACK
6
CONTINUOUS
10
46.2619
20
-101.189
11
46.261
21
-101.185
0
LINE
8
BLACK
6
CONTINUOUS
10
46.261
20
-101.185
11
46.2598
21
-101.181
0
LINE
8
BLACK
6
CONTINUOUS
10
46.2598
20
-101.181
11
46.2595
21
-101.178
0
LINE
8
BLACK
6
CONTINUOUS
10
46.2595
20
-101.178
11
46.2588
21
-101.175
0
LINE
8
BLACK
6
CONTINUOUS
10
46.2588
20
-101.175
11
46.2587
21
-101.171
0
LINE
8
BLACK
6
CONTINUOUS
10
46.2587
20
-101.171
11
46.2583
21
-101.167
0
LINE
8
BLACK
6
CONTINUOUS
10
46.2583
20
-101.167
11
46.2583
21
-100.452
0
LINE
8
BLACK
6
CONTINUOUS
10
46.2583
20
-100.452
11
46.2583
21
-100.451
0
LINE
8
BLACK
6
CONTINUOUS
10
46.2583
20
-100.451
11
46.26
21
-100.437
0
LINE
8
BLACK
6
CONTINUOUS
10
46.26
20
-100.437
11
46.2644
21
-100.423
0
LINE
8
BLACK
6
CONTINUOUS
10
46.2644
20
-100.423
11
46.2714
21
-100.41
0
LINE
8
BLACK
6
CONTINUOUS
10
46.2714
20
-100.41
11
46.2809
21
-100.399
0
LINE
8
BLACK
6
CONTINUOUS
10
46.2809
20
-100.399
11
46.2923
21
-100.39
0
LINE
8
BLACK
6
CONTINUOUS
10
46.2923
20
-100.39
11
46.3052
21
-100.383
0
LINE
8
BLACK
6
CONTINUOUS
10
46.3052
20
-100.383
11
46.3193
21
-100.379
0
LINE
8
BLACK
6
CONTINUOUS
10
46.3193
20
-100.379
11
46.3339
21
-100.377
0
LINE
8
BLACK
6
CONTINUOUS
10
46.3339
20
-100.377
11
46.3484
21
-100.379
0
LINE
8
BLACK
6
CONTINUOUS
10
43.8729
20
-25.05
11
43.8818
21
-25.0509
0
LINE
8
BLACK
6
CONTINUOUS
10
43.8818
20
-25.0509
11
43.8931
21
-25.0543
0
LINE
8
BLACK
6
CONTINUOUS
10
43.8931
20
-25.0543
11
43.9035
21
-25.0599
0
LINE
8
BLACK
6
CONTINUOUS
10
43.9035
20
-25.0599
11
43.9126
21
-25.0674
0
LINE
8
BLACK
6
CONTINUOUS
10
43.9126
20
-25.0674
11
43.9201
21
-25.0765
0
LINE
8
BLACK
6
CONTINUOUS
10
43.9201
20
-25.0765
11
43.9257
21
-25.0869
0
LINE
8
BLACK
6
CONTINUOUS
10
43.9257
20
-25.0869
11
43.9291
21
-25.0982
0
LINE
8
BLACK
6
CONTINUOUS
10
43.9291
20
-25.0982
11
43.9303
21
-25.11
0
LINE
8
BLACK
6
CONTINUOUS
10
43.9303
20
-25.11
11
43.93
21
-25.1129
0
LINE
8
BLACK
6
CONTINUOUS
10
43.93
20
-25.1129
11
43.93
21
-101.427
0
LINE
8
BLACK
6
CONTINUOUS
10
43.93
20
-101.427
11
43.9303
21
-101.43
0
LINE
8
BLACK
6
CONTINUOUS
10
43.9303
20
-101.43
11
43.9291
21
-101.442
0
LINE
8
BLACK
6
CONTINUOUS
10
43.9291
20
-101.442
11
43.9257
21
-101.453
0
LINE
8
BLACK
6
CONTINUOUS
10
43.9257
20
-101.453
11
43.9201
21
-101.463
0
LINE
8
BLACK
6
CONTINUOUS
10
43.9201
20
-101.463
11
43.9126
21
-101.473
0
LINE
8
BLACK
6
CONTINUOUS
10
43.9126
20
-101.473
11
43.9035
21
-101.48
0
LINE
8
BLACK
6
CONTINUOUS
10
43.9035
20
-101.48
11
43.8931
21
-101.486
0
LINE
8
BLACK
6
CONTINUOUS
10
43.8931
20
-101.486
11
43.8818
21
-101.489
0
LINE
8
BLACK
6
CONTINUOUS
10
43.8818
20
-101.489
11
43.8729
21
-101.49
0
LINE
8
BLACK
6
CONTINUOUS
10
43.8729
20
-101.49
11
43.8729
21
-101.49
0
LINE
8
BLACK
6
CONTINUOUS
10
43.8729
20
-101.49
11
43.87
21
-101.49
0
LINE
8
BLACK
6
CONTINUOUS
10
43.87
20
-101.49
11
43.8671
21
-101.49
0
LINE
8
BLACK
6
CONTINUOUS
10
43.8671
20
-101.49
11
41.2729
21
-101.49
0
LINE
8
BLACK
6
CONTINUOUS
10
41.2729
20
-101.49
11
41.27
21
-101.49
0
LINE
8
BLACK
6
CONTINUOUS
10
41.27
20
-101.49
11
41.2671
21
-101.49
0
LINE
8
BLACK
6
CONTINUOUS
10
41.2671
20
-101.49
11
41.2671
21
-101.49
0
LINE
8
BLACK
6
CONTINUOUS
10
41.2671
20
-101.49
11
41.2582
21
-101.489
0
LINE
8
BLACK
6
CONTINUOUS
10
41.2582
20
-101.489
11
41.2469
21
-101.486
0
LINE
8
BLACK
6
CONTINUOUS
10
41.2469
20
-101.486
11
41.2365
21
-101.48
0
LINE
8
BLACK
6
CONTINUOUS
10
41.2365
20
-101.48
11
41.2274
21
-101.473
0
LINE
8
BLACK
6
CONTINUOUS
10
41.2274
20
-101.473
11
41.2199
21
-101.463
0
LINE
8
BLACK
6
CONTINUOUS
10
41.2199
20
-101.463
11
41.2143
21
-101.453
0
LINE
8
BLACK
6
CONTINUOUS
10
41.2143
20
-101.453
11
41.2109
21
-101.442
0
LINE
8
BLACK
6
CONTINUOUS
10
41.2109
20
-101.442
11
41.2097
21
-101.43
0
LINE
8
BLACK
6
CONTINUOUS
10
41.2097
20
-101.43
11
41.21
21
-101.427
0
LINE
8
BLACK
6
CONTINUOUS
10
41.21
20
-101.427
11
41.21
21
-98.89
0
LINE
8
BLACK
6
CONTINUOUS
10
41.21
20
-98.89
11
38.6729
21
-98.89
0
LINE
8
BLACK
6
CONTINUOUS
10
38.6729
20
-98.89
11
38.67
21
-98.8903
0
LINE
8
BLACK
6
CONTINUOUS
10
38.67
20
-98.8903
11
38.6582
21
-98.8891
0
LINE
8
BLACK
6
CONTINUOUS
10
38.6582
20
-98.8891
11
38.6469
21
-98.8857
0
LINE
8
BLACK
6
CONTINUOUS
10
38.6469
20
-98.8857
11
38.6365
21
-98.8801
0
LINE
8
BLACK
6
CONTINUOUS
10
38.6365
20
-98.8801
11
38.6274
21
-98.8726
0
LINE
8
BLACK
6
CONTINUOUS
10
38.6274
20
-98.8726
11
38.6199
21
-98.8635
0
LINE
8
BLACK
6
CONTINUOUS
10
38.6199
20
-98.8635
11
38.6143
21
-98.8531
0
LINE
8
BLACK
6
CONTINUOUS
10
38.6143
20
-98.8531
11
38.6109
21
-98.8418
0
LINE
8
BLACK
6
CONTINUOUS
10
38.6109
20
-98.8418
11
38.6097
21
-98.83
0
LINE
8
BLACK
6
CONTINUOUS
10
38.6097
20
-98.83
11
38.61
21
-98.8271
0
LINE
8
BLACK
6
CONTINUOUS
10
38.61
20
-98.8271
11
38.61
21
-25.113
0
LINE
8
BLACK
6
CONTINUOUS
10
38.61
20
-25.113
11
38.6097
21
-25.11
0
LINE
8
BLACK
6
CONTINUOUS
10
38.6097
20
-25.11
11
38.6109
21
-25.0982
0
LINE
8
BLACK
6
CONTINUOUS
10
38.6109
20
-25.0982
11
38.6143
21
-25.0869
0
LINE
8
BLACK
6
CONTINUOUS
10
38.6143
20
-25.0869
11
38.6199
21
-25.0765
0
LINE
8
BLACK
6
CONTINUOUS
10
38.6199
20
-25.0765
11
38.6274
21
-25.0674
0
LINE
8
BLACK
6
CONTINUOUS
10
38.6274
20
-25.0674
11
38.6365
21
-25.0599
0
LINE
8
BLACK
6
CONTINUOUS
10
38.6365
20
-25.0599
11
38.6469
21
-25.0543
0
LINE
8
BLACK
6
CONTINUOUS
10
38.6469
20
-25.0543
11
38.6582
21
-25.0509
0
LINE
8
BLACK
6
CONTINUOUS
10
38.6582
20
-25.0509
11
38.6671
21
-25.05
0
LINE
8
BLACK
6
CONTINUOUS
10
38.6671
20
-25.05
11
38.6671
21
-25.05
0
LINE
8
BLACK
6
CONTINUOUS
10
38.6671
20
-25.05
11
38.67
21
-25.0497
0
LINE
8
BLACK
6
CONTINUOUS
10
38.67
20
-25.0497
11
38.6729
21
-25.05
0
LINE
8
BLACK
6
CONTINUOUS
10
38.6729
20
-25.05
11
43.8671
21
-25.05
0
LINE
8
BLACK
6
CONTINUOUS
10
43.8671
20
-25.05
11
43.87
21
-25.0497
0
LINE
8
BLACK
6
CONTINUOUS
10
43.87
20
-25.0497
11
43.8729
21
-25.05
0
LINE
8
BLACK
6
CONTINUOUS
10
38.73
20
-25.17
11
38.73
21
-98.77
0
LINE
8
BLACK
6
CONTINUOUS
10
38.73
20
-98.77
11
41.2671
21
-98.77
0
LINE
8
BLACK
6
CONTINUOUS
10
41.2671
20
-98.77
11
41.27
21
-98.7697
0
LINE
8
BLACK
6
CONTINUOUS
10
41.27
20
-98.7697
11
41.2729
21
-98.77
0
LINE
8
BLACK
6
CONTINUOUS
10
41.2729
20
-98.77
11
41.2729
21
-98.77
0
LINE
8
BLACK
6
CONTINUOUS
10
41.2729
20
-98.77
11
41.2818
21
-98.7709
0
LINE
8
BLACK
6
CONTINUOUS
10
41.2818
20
-98.7709
11
41.2931
21
-98.7743
0
LINE
8
BLACK
6
CONTINUOUS
10
41.2931
20
-98.7743
11
41.3035
21
-98.7799
0
LINE
8
BLACK
6
CONTINUOUS
10
41.3035
20
-98.7799
11
41.3126
21
-98.7874
0
LINE
8
BLACK
6
CONTINUOUS
10
41.3126
20
-98.7874
11
41.3201
21
-98.7965
0
LINE
8
BLACK
6
CONTINUOUS
10
41.3201
20
-98.7965
11
41.3257
21
-98.8069
0
LINE
8
BLACK
6
CONTINUOUS
10
41.3257
20
-98.8069
11
41.3291
21
-98.8182
0
LINE
8
BLACK
6
CONTINUOUS
10
41.3291
20
-98.8182
11
41.3303
21
-98.83
0
LINE
8
BLACK
6
CONTINUOUS
10
41.3303
20
-98.83
11
41.33
21
-98.8329
0
LINE
8
BLACK
6
CONTINUOUS
10
41.33
20
-98.8329
11
41.33
21
-101.37
0
LINE
8
BLACK
6
CONTINUOUS
10
41.33
20
-101.37
11
43.81
21
-101.37
0
LINE
8
BLACK
6
CONTINUOUS
10
43.81
20
-101.37
11
43.81
21
-25.17
0
LINE
8
BLACK
6
CONTINUOUS
10
43.81
20
-25.17
11
38.73
21
-25.17
0
LINE
8
BLACK
6
CONTINUOUS
10
38.6818
20
-100.041
11
38.6931
21
-100.044
0
LINE
8
BLACK
6
CONTINUOUS
10
38.6931
20
-100.044
11
38.7035
21
-100.05
0
LINE
8
BLACK
6
CONTINUOUS
10
38.7035
20
-100.05
11
38.7126
21
-100.057
0
LINE
8
BLACK
6
CONTINUOUS
10
38.7126
20
-100.057
11
38.7201
21
-100.067
0
LINE
8
BLACK
6
CONTINUOUS
10
38.7201
20
-100.067
11
38.7257
21
-100.077
0
LINE
8
BLACK
6
CONTINUOUS
10
38.7257
20
-100.077
11
38.7291
21
-100.088
0
LINE
8
BLACK
6
CONTINUOUS
10
38.7291
20
-100.088
11
38.73
21
-100.097
0
LINE
8
BLACK
6
CONTINUOUS
10
38.73
20
-100.097
11
38.73
21
-101.37
0
LINE
8
BLACK
6
CONTINUOUS
10
38.73
20
-101.37
11
40.0029
21
-101.37
0
LINE
8
BLACK
6
CONTINUOUS
10
40.0029
20
-101.37
11
40.0118
21
-101.371
0
LINE
8
BLACK
6
CONTINUOUS
10
40.0118
20
-101.371
11
40.0231
21
-101.374
0
LINE
8
BLACK
6
CONTINUOUS
10
40.0231
20
-101.374
11
40.0335
21
-101.38
0
LINE
8
BLACK
6
CONTINUOUS
10
40.0335
20
-101.38
11
40.0426
21
-101.387
0
LINE
8
BLACK
6
CONTINUOUS
10
40.0426
20
-101.387
11
40.0501
21
-101.397
0
LINE
8
BLACK
6
CONTINUOUS
10
40.0501
20
-101.397
11
40.0557
21
-101.407
0
LINE
8
BLACK
6
CONTINUOUS
10
40.0557
20
-101.407
11
40.0591
21
-101.418
0
LINE
8
BLACK
6
CONTINUOUS
10
40.0591
20
-101.418
11
40.0603
21
-101.43
0
LINE
8
BLACK
6
CONTINUOUS
10
40.0603
20
-101.43
11
40.0591
21
-101.442
0
LINE
8
BLACK
6
CONTINUOUS
10
40.0591
20
-101.442
11
40.0557
21
-101.453
0
LINE
8
BLACK
6
CONTINUOUS
10
40.0557
20
-101.453
11
40.0501
21
-101.463
0
LINE
8
BLACK
6
CONTINUOUS
10
40.0501
20
-101.463
11
40.0426
21
-101.473
0
LINE
8
BLACK
6
CONTINUOUS
10
40.0426
20
-101.473
11
40.0335
21
-101.48
0
LINE
8
BLACK
6
CONTINUOUS
10
40.0335
20
-101.48
11
40.0231
21
-101.486
0
LINE
8
BLACK
6
CONTINUOUS
10
40.0231
20
-101.486
11
40.0118
21
-101.489
0
LINE
8
BLACK
6
CONTINUOUS
10
40.0118
20
-101.489
11
40.0029
21
-101.49
0
LINE
8
BLACK
6
CONTINUOUS
10
40.0029
20
-101.49
11
38.6729
21
-101.49
0
LINE
8
BLACK
6
CONTINUOUS
10
38.6729
20
-101.49
11
38.67
21
-101.49
0
LINE
8
BLACK
6
CONTINUOUS
10
38.67
20
-101.49
11
38.6671
21
-101.49
0
LINE
8
BLACK
6
CONTINUOUS
10
38.6671
20
-101.49
11
38.6671
21
-101.49
0
LINE
8
BLACK
6
CONTINUOUS
10
38.6671
20
-101.49
11
38.6582
21
-101.489
0
LINE
8
BLACK
6
CONTINUOUS
10
38.6582
20
-101.489
11
38.6469
21
-101.486
0
LINE
8
BLACK
6
CONTINUOUS
10
38.6469
20
-101.486
11
38.6365
21
-101.48
0
LINE
8
BLACK
6
CONTINUOUS
10
38.6365
20
-101.48
11
38.6274
21
-101.473
0
LINE
8
BLACK
6
CONTINUOUS
10
38.6274
20
-101.473
11
38.6199
21
-101.463
0
LINE
8
BLACK
6
CONTINUOUS
10
38.6199
20
-101.463
11
38.6143
21
-101.453
0
LINE
8
BLACK
6
CONTINUOUS
10
38.6143
20
-101.453
11
38.6109
21
-101.442
0
LINE
8
BLACK
6
CONTINUOUS
10
38.6109
20
-101.442
11
38.6097
21
-101.43
0
LINE
8
BLACK
6
CONTINUOUS
10
38.6097
20
-101.43
11
38.61
21
-101.427
0
LINE
8
BLACK
6
CONTINUOUS
10
38.61
20
-101.427
11
38.61
21
-100.097
0
LINE
8
BLACK
6
CONTINUOUS
10
38.61
20
-100.097
11
38.6109
21
-100.088
0
LINE
8
BLACK
6
CONTINUOUS
10
38.6109
20
-100.088
11
38.6143
21
-100.077
0
LINE
8
BLACK
6
CONTINUOUS
10
38.6143
20
-100.077
11
38.6199
21
-100.067
0
LINE
8
BLACK
6
CONTINUOUS
10
38.6199
20
-100.067
11
38.6274
21
-100.057
0
LINE
8
BLACK
6
CONTINUOUS
10
38.6274
20
-100.057
11
38.6365
21
-100.05
0
LINE
8
BLACK
6
CONTINUOUS
10
38.6365
20
-100.05
11
38.6469
21
-100.044
0
LINE
8
BLACK
6
CONTINUOUS
10
38.6469
20
-100.044
11
38.6582
21
-100.041
0
LINE
8
BLACK
6
CONTINUOUS
10
38.6582
20
-100.041
11
38.67
21
-100.04
0
LINE
8
BLACK
6
CONTINUOUS
10
38.67
20
-100.04
11
38.6818
21
-100.041
  0
ENDSEC
  0
EOF
