  0
SECTION
  2
HEADER
  9
$ANGBASE
  50
0.0
  9
$ANGDIR
  70
1
  9
$MEASUREMENT
  70
1
  0
ENDSEC
  0
SECTION
  2
TABLES
  0
TABLE
  2
LTYPE
  70
4
  0
LTYPE
  5
40F
  2
CONTINUOUS
  70
0
  3
Solid line
  72
65
  73
0
  40
0.0
  0
LTYPE
  5
410
  2
DASHDOT
 70
0
  3
Dash Dot ____ _ ____ _
 72
65
 73
4
 40
2.0
 49
1.25
 49
-0.25
 49
0.25
 49
-0.25
  0
LTYPE
  5
411
  2
DASHED
 70
0
  3
Dashed __ __ __ __ __
 72
65
 73
2
 40
0.75
 49
0.5
 49
-0.25
  0
LTYPE
  5
43B
  2
DOTTED
 70
0
  3
Dotted .  .  .  .
 72
65
 73
2
 40
0.2
 49
0.0
 49
-0.2
  0
ENDTAB
  0
TABLE
  2
STYLE
  70
4
  0
STYLE
  2
KICAD
  70
0
  40
0
  41
1
  42
1
  50
0
  71
0
  3
isocp.shx
  0
STYLE
  2
KICADB
  70
0
  40
0
  41
1
  42
1
  50
0
  71
0
  3
isocp.shx
  0
STYLE
  2
KICADI
  70
0
  40
0
  41
1
  42
1
  50
15
  71
0
  3
isocp.shx
  0
STYLE
  2
KICADBI
  70
0
  40
0
  41
1
  42
1
  50
15
  71
0
  3
isocp.shx
  0
ENDTAB
  0
TABLE
  2
LAYER
  70
1
  0
LAYER
  2
BLACK
  70
0
  62
7
  6
CONTINUOUS
  0
ENDTAB
  0
ENDSEC
  0
SECTION
  2
ENTITIES
0
LINE
8
BLACK
6
CONTINUOUS
10
82.9976
20
-69.05
11
82.9902
21
-69.0493
0
LINE
8
BLACK
6
CONTINUOUS
10
82.9902
20
-69.0493
11
82.9808
21
-69.0464
0
LINE
8
BLACK
6
CONTINUOUS
10
82.9808
20
-69.0464
11
82.9721
21
-69.0418
0
LINE
8
BLACK
6
CONTINUOUS
10
82.9721
20
-69.0418
11
82.9645
21
-69.0355
0
LINE
8
BLACK
6
CONTINUOUS
10
82.9645
20
-69.0355
11
82.9582
21
-69.0279
0
LINE
8
BLACK
6
CONTINUOUS
10
82.9582
20
-69.0279
11
82.9536
21
-69.0192
0
LINE
8
BLACK
6
CONTINUOUS
10
82.9536
20
-69.0192
11
82.9507
21
-69.0098
0
LINE
8
BLACK
6
CONTINUOUS
10
82.9507
20
-69.0098
11
82.9498
21
-69
0
LINE
8
BLACK
6
CONTINUOUS
10
82.9498
20
-69
11
82.9507
21
-68.9902
0
LINE
8
BLACK
6
CONTINUOUS
10
82.9507
20
-68.9902
11
82.9536
21
-68.9808
0
LINE
8
BLACK
6
CONTINUOUS
10
82.9536
20
-68.9808
11
82.9582
21
-68.9721
0
LINE
8
BLACK
6
CONTINUOUS
10
82.9582
20
-68.9721
11
82.9645
21
-68.9645
0
LINE
8
BLACK
6
CONTINUOUS
10
82.9645
20
-68.9645
11
82.9721
21
-68.9582
0
LINE
8
BLACK
6
CONTINUOUS
10
82.9721
20
-68.9582
11
82.9808
21
-68.9536
0
LINE
8
BLACK
6
CONTINUOUS
10
82.9808
20
-68.9536
11
82.9902
21
-68.9507
0
LINE
8
BLACK
6
CONTINUOUS
10
82.9902
20
-68.9507
11
82.9976
21
-68.95
0
LINE
8
BLACK
6
CONTINUOUS
10
82.9976
20
-68.95
11
86.65
21
-68.95
0
LINE
8
BLACK
6
CONTINUOUS
10
86.65
20
-68.95
11
86.65
21
-55.05
0
LINE
8
BLACK
6
CONTINUOUS
10
86.65
20
-55.05
11
82.9976
21
-55.05
0
LINE
8
BLACK
6
CONTINUOUS
10
82.9976
20
-55.05
11
82.9902
21
-55.0493
0
LINE
8
BLACK
6
CONTINUOUS
10
82.9902
20
-55.0493
11
82.9808
21
-55.0464
0
LINE
8
BLACK
6
CONTINUOUS
10
82.9808
20
-55.0464
11
82.9721
21
-55.0418
0
LINE
8
BLACK
6
CONTINUOUS
10
82.9721
20
-55.0418
11
82.9645
21
-55.0355
0
LINE
8
BLACK
6
CONTINUOUS
10
82.9645
20
-55.0355
11
82.9582
21
-55.0279
0
LINE
8
BLACK
6
CONTINUOUS
10
82.9582
20
-55.0279
11
82.9536
21
-55.0192
0
LINE
8
BLACK
6
CONTINUOUS
10
82.9536
20
-55.0192
11
82.9507
21
-55.0098
0
LINE
8
BLACK
6
CONTINUOUS
10
82.9507
20
-55.0098
11
82.9498
21
-55
0
LINE
8
BLACK
6
CONTINUOUS
10
82.9498
20
-55
11
82.9507
21
-54.9902
0
LINE
8
BLACK
6
CONTINUOUS
10
82.9507
20
-54.9902
11
82.9536
21
-54.9808
0
LINE
8
BLACK
6
CONTINUOUS
10
82.9536
20
-54.9808
11
82.9582
21
-54.9721
0
LINE
8
BLACK
6
CONTINUOUS
10
82.9582
20
-54.9721
11
82.9645
21
-54.9645
0
LINE
8
BLACK
6
CONTINUOUS
10
82.9645
20
-54.9645
11
82.9721
21
-54.9582
0
LINE
8
BLACK
6
CONTINUOUS
10
82.9721
20
-54.9582
11
82.9808
21
-54.9536
0
LINE
8
BLACK
6
CONTINUOUS
10
82.9808
20
-54.9536
11
82.9902
21
-54.9507
0
LINE
8
BLACK
6
CONTINUOUS
10
82.9902
20
-54.9507
11
82.9976
21
-54.95
0
LINE
8
BLACK
6
CONTINUOUS
10
82.9976
20
-54.95
11
86.6976
21
-54.95
0
LINE
8
BLACK
6
CONTINUOUS
10
86.6976
20
-54.95
11
86.7
21
-54.9498
0
LINE
8
BLACK
6
CONTINUOUS
10
86.7
20
-54.9498
11
86.7024
21
-54.95
0
LINE
8
BLACK
6
CONTINUOUS
10
86.7024
20
-54.95
11
86.7098
21
-54.9507
0
LINE
8
BLACK
6
CONTINUOUS
10
86.7098
20
-54.9507
11
86.7192
21
-54.9536
0
LINE
8
BLACK
6
CONTINUOUS
10
86.7192
20
-54.9536
11
86.7279
21
-54.9582
0
LINE
8
BLACK
6
CONTINUOUS
10
86.7279
20
-54.9582
11
86.7355
21
-54.9645
0
LINE
8
BLACK
6
CONTINUOUS
10
86.7355
20
-54.9645
11
86.7418
21
-54.9721
0
LINE
8
BLACK
6
CONTINUOUS
10
86.7418
20
-54.9721
11
86.7464
21
-54.9808
0
LINE
8
BLACK
6
CONTINUOUS
10
86.7464
20
-54.9808
11
86.7493
21
-54.9902
0
LINE
8
BLACK
6
CONTINUOUS
10
86.7493
20
-54.9902
11
86.7502
21
-55
0
LINE
8
BLACK
6
CONTINUOUS
10
86.7502
20
-55
11
86.75
21
-55.0024
0
LINE
8
BLACK
6
CONTINUOUS
10
86.75
20
-55.0024
11
86.75
21
-68.9976
0
LINE
8
BLACK
6
CONTINUOUS
10
86.75
20
-68.9976
11
86.7502
21
-69
0
LINE
8
BLACK
6
CONTINUOUS
10
86.7502
20
-69
11
86.75
21
-69.0024
0
LINE
8
BLACK
6
CONTINUOUS
10
86.75
20
-69.0024
11
86.75
21
-69.0024
0
LINE
8
BLACK
6
CONTINUOUS
10
86.75
20
-69.0024
11
86.7493
21
-69.0098
0
LINE
8
BLACK
6
CONTINUOUS
10
86.7493
20
-69.0098
11
86.7464
21
-69.0192
0
LINE
8
BLACK
6
CONTINUOUS
10
86.7464
20
-69.0192
11
86.7418
21
-69.0279
0
LINE
8
BLACK
6
CONTINUOUS
10
86.7418
20
-69.0279
11
86.7355
21
-69.0355
0
LINE
8
BLACK
6
CONTINUOUS
10
86.7355
20
-69.0355
11
86.7279
21
-69.0418
0
LINE
8
BLACK
6
CONTINUOUS
10
86.7279
20
-69.0418
11
86.7192
21
-69.0464
0
LINE
8
BLACK
6
CONTINUOUS
10
86.7192
20
-69.0464
11
86.7098
21
-69.0493
0
LINE
8
BLACK
6
CONTINUOUS
10
86.7098
20
-69.0493
11
86.7
21
-69.0502
0
LINE
8
BLACK
6
CONTINUOUS
10
86.7
20
-69.0502
11
86.6976
21
-69.05
0
LINE
8
BLACK
6
CONTINUOUS
10
86.6976
20
-69.05
11
82.9976
21
-69.05
0
LINE
8
BLACK
6
CONTINUOUS
10
77.0098
20
-54.9507
11
77.0192
21
-54.9536
0
LINE
8
BLACK
6
CONTINUOUS
10
77.0192
20
-54.9536
11
77.0279
21
-54.9582
0
LINE
8
BLACK
6
CONTINUOUS
10
77.0279
20
-54.9582
11
77.0355
21
-54.9645
0
LINE
8
BLACK
6
CONTINUOUS
10
77.0355
20
-54.9645
11
77.0418
21
-54.9721
0
LINE
8
BLACK
6
CONTINUOUS
10
77.0418
20
-54.9721
11
77.0464
21
-54.9808
0
LINE
8
BLACK
6
CONTINUOUS
10
77.0464
20
-54.9808
11
77.0493
21
-54.9902
0
LINE
8
BLACK
6
CONTINUOUS
10
77.0493
20
-54.9902
11
77.0502
21
-55
0
LINE
8
BLACK
6
CONTINUOUS
10
77.0502
20
-55
11
77.0493
21
-55.0098
0
LINE
8
BLACK
6
CONTINUOUS
10
77.0493
20
-55.0098
11
77.0464
21
-55.0192
0
LINE
8
BLACK
6
CONTINUOUS
10
77.0464
20
-55.0192
11
77.0418
21
-55.0279
0
LINE
8
BLACK
6
CONTINUOUS
10
77.0418
20
-55.0279
11
77.0355
21
-55.0355
0
LINE
8
BLACK
6
CONTINUOUS
10
77.0355
20
-55.0355
11
77.0279
21
-55.0418
0
LINE
8
BLACK
6
CONTINUOUS
10
77.0279
20
-55.0418
11
77.0192
21
-55.0464
0
LINE
8
BLACK
6
CONTINUOUS
10
77.0192
20
-55.0464
11
77.0098
21
-55.0493
0
LINE
8
BLACK
6
CONTINUOUS
10
77.0098
20
-55.0493
11
77.0024
21
-55.05
0
LINE
8
BLACK
6
CONTINUOUS
10
77.0024
20
-55.05
11
70.35
21
-55.05
0
LINE
8
BLACK
6
CONTINUOUS
10
70.35
20
-55.05
11
70.35
21
-68.95
0
LINE
8
BLACK
6
CONTINUOUS
10
70.35
20
-68.95
11
77.0024
21
-68.95
0
LINE
8
BLACK
6
CONTINUOUS
10
77.0024
20
-68.95
11
77.0098
21
-68.9507
0
LINE
8
BLACK
6
CONTINUOUS
10
77.0098
20
-68.9507
11
77.0192
21
-68.9536
0
LINE
8
BLACK
6
CONTINUOUS
10
77.0192
20
-68.9536
11
77.0279
21
-68.9582
0
LINE
8
BLACK
6
CONTINUOUS
10
77.0279
20
-68.9582
11
77.0355
21
-68.9645
0
LINE
8
BLACK
6
CONTINUOUS
10
77.0355
20
-68.9645
11
77.0418
21
-68.9721
0
LINE
8
BLACK
6
CONTINUOUS
10
77.0418
20
-68.9721
11
77.0464
21
-68.9808
0
LINE
8
BLACK
6
CONTINUOUS
10
77.0464
20
-68.9808
11
77.0493
21
-68.9902
0
LINE
8
BLACK
6
CONTINUOUS
10
77.0493
20
-68.9902
11
77.0502
21
-69
0
LINE
8
BLACK
6
CONTINUOUS
10
77.0502
20
-69
11
77.0493
21
-69.0098
0
LINE
8
BLACK
6
CONTINUOUS
10
77.0493
20
-69.0098
11
77.0464
21
-69.0192
0
LINE
8
BLACK
6
CONTINUOUS
10
77.0464
20
-69.0192
11
77.0418
21
-69.0279
0
LINE
8
BLACK
6
CONTINUOUS
10
77.0418
20
-69.0279
11
77.0355
21
-69.0355
0
LINE
8
BLACK
6
CONTINUOUS
10
77.0355
20
-69.0355
11
77.0279
21
-69.0418
0
LINE
8
BLACK
6
CONTINUOUS
10
77.0279
20
-69.0418
11
77.0192
21
-69.0464
0
LINE
8
BLACK
6
CONTINUOUS
10
77.0192
20
-69.0464
11
77.0098
21
-69.0493
0
LINE
8
BLACK
6
CONTINUOUS
10
77.0098
20
-69.0493
11
77.0024
21
-69.05
0
LINE
8
BLACK
6
CONTINUOUS
10
77.0024
20
-69.05
11
70.3024
21
-69.05
0
LINE
8
BLACK
6
CONTINUOUS
10
70.3024
20
-69.05
11
70.3
21
-69.0502
0
LINE
8
BLACK
6
CONTINUOUS
10
70.3
20
-69.0502
11
70.2902
21
-69.0493
0
LINE
8
BLACK
6
CONTINUOUS
10
70.2902
20
-69.0493
11
70.2808
21
-69.0464
0
LINE
8
BLACK
6
CONTINUOUS
10
70.2808
20
-69.0464
11
70.2721
21
-69.0418
0
LINE
8
BLACK
6
CONTINUOUS
10
70.2721
20
-69.0418
11
70.2645
21
-69.0355
0
LINE
8
BLACK
6
CONTINUOUS
10
70.2645
20
-69.0355
11
70.2582
21
-69.0279
0
LINE
8
BLACK
6
CONTINUOUS
10
70.2582
20
-69.0279
11
70.2536
21
-69.0192
0
LINE
8
BLACK
6
CONTINUOUS
10
70.2536
20
-69.0192
11
70.2507
21
-69.0098
0
LINE
8
BLACK
6
CONTINUOUS
10
70.2507
20
-69.0098
11
70.2498
21
-69
0
LINE
8
BLACK
6
CONTINUOUS
10
70.2498
20
-69
11
70.25
21
-68.9976
0
LINE
8
BLACK
6
CONTINUOUS
10
70.25
20
-68.9976
11
70.25
21
-55.0024
0
LINE
8
BLACK
6
CONTINUOUS
10
70.25
20
-55.0024
11
70.2498
21
-55
0
LINE
8
BLACK
6
CONTINUOUS
10
70.2498
20
-55
11
70.2507
21
-54.9902
0
LINE
8
BLACK
6
CONTINUOUS
10
70.2507
20
-54.9902
11
70.2536
21
-54.9808
0
LINE
8
BLACK
6
CONTINUOUS
10
70.2536
20
-54.9808
11
70.2582
21
-54.9721
0
LINE
8
BLACK
6
CONTINUOUS
10
70.2582
20
-54.9721
11
70.2645
21
-54.9645
0
LINE
8
BLACK
6
CONTINUOUS
10
70.2645
20
-54.9645
11
70.2721
21
-54.9582
0
LINE
8
BLACK
6
CONTINUOUS
10
70.2721
20
-54.9582
11
70.2808
21
-54.9536
0
LINE
8
BLACK
6
CONTINUOUS
10
70.2808
20
-54.9536
11
70.2902
21
-54.9507
0
LINE
8
BLACK
6
CONTINUOUS
10
70.2902
20
-54.9507
11
70.2976
21
-54.95
0
LINE
8
BLACK
6
CONTINUOUS
10
70.2976
20
-54.95
11
70.3
21
-54.9498
0
LINE
8
BLACK
6
CONTINUOUS
10
70.3
20
-54.9498
11
70.3024
21
-54.95
0
LINE
8
BLACK
6
CONTINUOUS
10
70.3024
20
-54.95
11
77.0024
21
-54.95
0
LINE
8
BLACK
6
CONTINUOUS
10
77.0024
20
-54.95
11
77.0098
21
-54.9507
0
LINE
8
BLACK
6
CONTINUOUS
10
76.4955
20
-62.6904
11
76.5197
21
-62.6959
0
LINE
8
BLACK
6
CONTINUOUS
10
76.5197
20
-62.6959
11
77.7897
21
-63.1193
0
LINE
8
BLACK
6
CONTINUOUS
10
77.7897
20
-63.1193
11
77.7914
21
-63.1198
0
LINE
8
BLACK
6
CONTINUOUS
10
77.7914
20
-63.1198
11
77.7993
21
-63.1235
0
LINE
8
BLACK
6
CONTINUOUS
10
77.7993
20
-63.1235
11
77.8075
21
-63.1268
0
LINE
8
BLACK
6
CONTINUOUS
10
77.8075
20
-63.1268
11
77.8106
21
-63.1287
0
LINE
8
BLACK
6
CONTINUOUS
10
77.8106
20
-63.1287
11
77.8139
21
-63.1303
0
LINE
8
BLACK
6
CONTINUOUS
10
77.8139
20
-63.1303
11
77.821
21
-63.1354
0
LINE
8
BLACK
6
CONTINUOUS
10
77.821
20
-63.1354
11
77.8283
21
-63.1402
0
LINE
8
BLACK
6
CONTINUOUS
10
77.8283
20
-63.1402
11
77.831
21
-63.1427
0
LINE
8
BLACK
6
CONTINUOUS
10
77.831
20
-63.1427
11
77.8339
21
-63.1448
0
LINE
8
BLACK
6
CONTINUOUS
10
77.8339
20
-63.1448
11
77.8399
21
-63.1513
0
LINE
8
BLACK
6
CONTINUOUS
10
77.8399
20
-63.1513
11
77.8462
21
-63.1574
0
LINE
8
BLACK
6
CONTINUOUS
10
77.8462
20
-63.1574
11
77.8483
21
-63.1604
0
LINE
8
BLACK
6
CONTINUOUS
10
77.8483
20
-63.1604
11
77.8507
21
-63.163
0
LINE
8
BLACK
6
CONTINUOUS
10
77.8507
20
-63.163
11
77.8553
21
-63.1705
0
LINE
8
BLACK
6
CONTINUOUS
10
77.8553
20
-63.1705
11
77.8603
21
-63.1777
0
LINE
8
BLACK
6
CONTINUOUS
10
77.8603
20
-63.1777
11
77.8618
21
-63.1811
0
LINE
8
BLACK
6
CONTINUOUS
10
77.8618
20
-63.1811
11
77.8637
21
-63.1842
0
LINE
8
BLACK
6
CONTINUOUS
10
77.8637
20
-63.1842
11
77.8668
21
-63.1924
0
LINE
8
BLACK
6
CONTINUOUS
10
77.8668
20
-63.1924
11
77.8703
21
-63.2004
0
LINE
8
BLACK
6
CONTINUOUS
10
77.8703
20
-63.2004
11
77.8711
21
-63.204
0
LINE
8
BLACK
6
CONTINUOUS
10
77.8711
20
-63.204
11
77.8723
21
-63.2074
0
LINE
8
BLACK
6
CONTINUOUS
10
77.8723
20
-63.2074
11
77.8737
21
-63.216
0
LINE
8
BLACK
6
CONTINUOUS
10
77.8737
20
-63.216
11
77.8756
21
-63.2246
0
LINE
8
BLACK
6
CONTINUOUS
10
77.8756
20
-63.2246
11
77.8757
21
-63.2283
0
LINE
8
BLACK
6
CONTINUOUS
10
77.8757
20
-63.2283
11
77.8763
21
-63.2319
0
LINE
8
BLACK
6
CONTINUOUS
10
77.8763
20
-63.2319
11
77.876
21
-63.2406
0
LINE
8
BLACK
6
CONTINUOUS
10
77.876
20
-63.2406
11
77.8762
21
-63.2494
0
LINE
8
BLACK
6
CONTINUOUS
10
77.8762
20
-63.2494
11
77.8755
21
-63.253
0
LINE
8
BLACK
6
CONTINUOUS
10
77.8755
20
-63.253
11
77.8754
21
-63.2566
0
LINE
8
BLACK
6
CONTINUOUS
10
77.8754
20
-63.2566
11
77.8734
21
-63.2652
0
LINE
8
BLACK
6
CONTINUOUS
10
77.8734
20
-63.2652
11
77.8719
21
-63.2738
0
LINE
8
BLACK
6
CONTINUOUS
10
77.8719
20
-63.2738
11
77.8706
21
-63.2772
0
LINE
8
BLACK
6
CONTINUOUS
10
77.8706
20
-63.2772
11
77.8697
21
-63.2808
0
LINE
8
BLACK
6
CONTINUOUS
10
77.8697
20
-63.2808
11
77.8661
21
-63.2887
0
LINE
8
BLACK
6
CONTINUOUS
10
77.8661
20
-63.2887
11
77.8629
21
-63.297
0
LINE
8
BLACK
6
CONTINUOUS
10
77.8629
20
-63.297
11
77.861
21
-63.3
0
LINE
8
BLACK
6
CONTINUOUS
10
77.861
20
-63.3
11
77.8595
21
-63.3033
0
LINE
8
BLACK
6
CONTINUOUS
10
77.8595
20
-63.3033
11
77.8544
21
-63.3105
0
LINE
8
BLACK
6
CONTINUOUS
10
77.8544
20
-63.3105
11
77.8496
21
-63.3179
0
LINE
8
BLACK
6
CONTINUOUS
10
77.8496
20
-63.3179
11
77.8471
21
-63.3205
0
LINE
8
BLACK
6
CONTINUOUS
10
77.8471
20
-63.3205
11
77.845
21
-63.3235
0
LINE
8
BLACK
6
CONTINUOUS
10
77.845
20
-63.3235
11
77.8386
21
-63.3295
0
LINE
8
BLACK
6
CONTINUOUS
10
77.8386
20
-63.3295
11
77.8326
21
-63.3358
0
LINE
8
BLACK
6
CONTINUOUS
10
77.8326
20
-63.3358
11
77.8296
21
-63.3379
0
LINE
8
BLACK
6
CONTINUOUS
10
77.8296
20
-63.3379
11
77.8269
21
-63.3404
0
LINE
8
BLACK
6
CONTINUOUS
10
77.8269
20
-63.3404
11
77.8195
21
-63.3451
0
LINE
8
BLACK
6
CONTINUOUS
10
77.8195
20
-63.3451
11
77.8123
21
-63.3501
0
LINE
8
BLACK
6
CONTINUOUS
10
77.8123
20
-63.3501
11
77.809
21
-63.3516
0
LINE
8
BLACK
6
CONTINUOUS
10
77.809
20
-63.3516
11
77.8059
21
-63.3535
0
LINE
8
BLACK
6
CONTINUOUS
10
77.8059
20
-63.3535
11
77.7977
21
-63.3567
0
LINE
8
BLACK
6
CONTINUOUS
10
77.7977
20
-63.3567
11
77.7897
21
-63.3602
0
LINE
8
BLACK
6
CONTINUOUS
10
77.7897
20
-63.3602
11
76.5197
21
-63.7836
0
LINE
8
BLACK
6
CONTINUOUS
10
76.5197
20
-63.7836
11
76.518
21
-63.7841
0
LINE
8
BLACK
6
CONTINUOUS
10
76.518
20
-63.7841
11
76.4938
21
-63.7893
0
LINE
8
BLACK
6
CONTINUOUS
10
76.4938
20
-63.7893
11
76.469
21
-63.7897
0
LINE
8
BLACK
6
CONTINUOUS
10
76.469
20
-63.7897
11
76.4446
21
-63.7852
0
LINE
8
BLACK
6
CONTINUOUS
10
76.4446
20
-63.7852
11
76.4215
21
-63.7761
0
LINE
8
BLACK
6
CONTINUOUS
10
76.4215
20
-63.7761
11
76.4007
21
-63.7627
0
LINE
8
BLACK
6
CONTINUOUS
10
76.4007
20
-63.7627
11
76.3829
21
-63.7455
0
LINE
8
BLACK
6
CONTINUOUS
10
76.3829
20
-63.7455
11
76.3687
21
-63.7251
0
LINE
8
BLACK
6
CONTINUOUS
10
76.3687
20
-63.7251
11
76.3588
21
-63.7024
0
LINE
8
BLACK
6
CONTINUOUS
10
76.3588
20
-63.7024
11
76.3534
21
-63.6782
0
LINE
8
BLACK
6
CONTINUOUS
10
76.3534
20
-63.6782
11
76.3529
21
-63.6534
0
LINE
8
BLACK
6
CONTINUOUS
10
76.3529
20
-63.6534
11
76.3572
21
-63.629
0
LINE
8
BLACK
6
CONTINUOUS
10
76.3572
20
-63.629
11
76.3661
21
-63.6059
0
LINE
8
BLACK
6
CONTINUOUS
10
76.3661
20
-63.6059
11
76.3794
21
-63.585
0
LINE
8
BLACK
6
CONTINUOUS
10
76.3794
20
-63.585
11
76.3965
21
-63.567
0
LINE
8
BLACK
6
CONTINUOUS
10
76.3965
20
-63.567
11
76.4167
21
-63.5527
0
LINE
8
BLACK
6
CONTINUOUS
10
76.4167
20
-63.5527
11
76.4394
21
-63.5426
0
LINE
8
BLACK
6
CONTINUOUS
10
76.4394
20
-63.5426
11
77.3479
21
-63.2398
0
LINE
8
BLACK
6
CONTINUOUS
10
77.3479
20
-63.2398
11
76.4394
21
-62.9369
0
LINE
8
BLACK
6
CONTINUOUS
10
76.4394
20
-62.9369
11
76.4377
21
-62.9363
0
LINE
8
BLACK
6
CONTINUOUS
10
76.4377
20
-62.9363
11
76.4152
21
-62.9259
0
LINE
8
BLACK
6
CONTINUOUS
10
76.4152
20
-62.9259
11
76.3951
21
-62.9113
0
LINE
8
BLACK
6
CONTINUOUS
10
76.3951
20
-62.9113
11
76.3783
21
-62.8931
0
LINE
8
BLACK
6
CONTINUOUS
10
76.3783
20
-62.8931
11
76.3653
21
-62.872
0
LINE
8
BLACK
6
CONTINUOUS
10
76.3653
20
-62.872
11
76.3567
21
-62.8488
0
LINE
8
BLACK
6
CONTINUOUS
10
76.3567
20
-62.8488
11
76.3528
21
-62.8243
0
LINE
8
BLACK
6
CONTINUOUS
10
76.3528
20
-62.8243
11
76.3536
21
-62.7996
0
LINE
8
BLACK
6
CONTINUOUS
10
76.3536
20
-62.7996
11
76.3593
21
-62.7754
0
LINE
8
BLACK
6
CONTINUOUS
10
76.3593
20
-62.7754
11
76.3696
21
-62.7529
0
LINE
8
BLACK
6
CONTINUOUS
10
76.3696
20
-62.7529
11
76.384
21
-62.7327
0
LINE
8
BLACK
6
CONTINUOUS
10
76.384
20
-62.7327
11
76.4021
21
-62.7158
0
LINE
8
BLACK
6
CONTINUOUS
10
76.4021
20
-62.7158
11
76.4231
21
-62.7026
0
LINE
8
BLACK
6
CONTINUOUS
10
76.4231
20
-62.7026
11
76.4463
21
-62.6939
0
LINE
8
BLACK
6
CONTINUOUS
10
76.4463
20
-62.6939
11
76.4707
21
-62.6897
0
LINE
8
BLACK
6
CONTINUOUS
10
76.4707
20
-62.6897
11
76.4955
21
-62.6904
0
LINE
8
BLACK
6
CONTINUOUS
10
76.9046
20
-61.5404
11
76.9084
21
-61.5408
0
LINE
8
BLACK
6
CONTINUOUS
10
76.9084
20
-61.5408
11
76.9121
21
-61.5407
0
LINE
8
BLACK
6
CONTINUOUS
10
76.9121
20
-61.5407
11
76.9206
21
-61.5422
0
LINE
8
BLACK
6
CONTINUOUS
10
76.9206
20
-61.5422
11
76.9293
21
-61.5432
0
LINE
8
BLACK
6
CONTINUOUS
10
76.9293
20
-61.5432
11
76.9328
21
-61.5443
0
LINE
8
BLACK
6
CONTINUOUS
10
76.9328
20
-61.5443
11
76.9365
21
-61.5449
0
LINE
8
BLACK
6
CONTINUOUS
10
76.9365
20
-61.5449
11
76.9446
21
-61.548
0
LINE
8
BLACK
6
CONTINUOUS
10
76.9446
20
-61.548
11
76.9529
21
-61.5506
0
LINE
8
BLACK
6
CONTINUOUS
10
76.9529
20
-61.5506
11
76.9562
21
-61.5525
0
LINE
8
BLACK
6
CONTINUOUS
10
76.9562
20
-61.5525
11
76.9597
21
-61.5538
0
LINE
8
BLACK
6
CONTINUOUS
10
76.9597
20
-61.5538
11
77.0806
21
-61.6143
0
LINE
8
BLACK
6
CONTINUOUS
10
77.0806
20
-61.6143
11
77.0822
21
-61.6151
0
LINE
8
BLACK
6
CONTINUOUS
10
77.0822
20
-61.6151
11
77.0882
21
-61.619
0
LINE
8
BLACK
6
CONTINUOUS
10
77.0882
20
-61.619
11
77.0945
21
-61.6223
0
LINE
8
BLACK
6
CONTINUOUS
10
77.0945
20
-61.6223
11
77.0985
21
-61.6257
0
LINE
8
BLACK
6
CONTINUOUS
10
77.0985
20
-61.6257
11
77.103
21
-61.6286
0
LINE
8
BLACK
6
CONTINUOUS
10
77.103
20
-61.6286
11
77.1081
21
-61.6335
0
LINE
8
BLACK
6
CONTINUOUS
10
77.1081
20
-61.6335
11
77.1136
21
-61.6381
0
LINE
8
BLACK
6
CONTINUOUS
10
77.1136
20
-61.6381
11
77.1741
21
-61.6985
0
LINE
8
BLACK
6
CONTINUOUS
10
77.1741
20
-61.6985
11
77.1753
21
-61.6998
0
LINE
8
BLACK
6
CONTINUOUS
10
77.1753
20
-61.6998
11
77.1798
21
-61.7054
0
LINE
8
BLACK
6
CONTINUOUS
10
77.1798
20
-61.7054
11
77.1847
21
-61.7106
0
LINE
8
BLACK
6
CONTINUOUS
10
77.1847
20
-61.7106
11
77.1875
21
-61.715
0
LINE
8
BLACK
6
CONTINUOUS
10
77.1875
20
-61.715
11
77.1908
21
-61.7192
0
LINE
8
BLACK
6
CONTINUOUS
10
77.1908
20
-61.7192
11
77.1941
21
-61.7255
0
LINE
8
BLACK
6
CONTINUOUS
10
77.1941
20
-61.7255
11
77.1979
21
-61.7315
0
LINE
8
BLACK
6
CONTINUOUS
10
77.1979
20
-61.7315
11
77.2584
21
-61.8525
0
LINE
8
BLACK
6
CONTINUOUS
10
77.2584
20
-61.8525
11
77.2591
21
-61.8541
0
LINE
8
BLACK
6
CONTINUOUS
10
77.2591
20
-61.8541
11
77.2596
21
-61.8553
0
LINE
8
BLACK
6
CONTINUOUS
10
77.2596
20
-61.8553
11
77.6767
21
-61.5633
0
LINE
8
BLACK
6
CONTINUOUS
10
77.6767
20
-61.5633
11
77.6782
21
-61.5623
0
LINE
8
BLACK
6
CONTINUOUS
10
77.6782
20
-61.5623
11
77.6999
21
-61.5505
0
LINE
8
BLACK
6
CONTINUOUS
10
77.6999
20
-61.5505
11
77.7236
21
-61.5431
0
LINE
8
BLACK
6
CONTINUOUS
10
77.7236
20
-61.5431
11
77.7482
21
-61.5404
0
LINE
8
BLACK
6
CONTINUOUS
10
77.7482
20
-61.5404
11
77.7729
21
-61.5426
0
LINE
8
BLACK
6
CONTINUOUS
10
77.7729
20
-61.5426
11
77.7967
21
-61.5495
0
LINE
8
BLACK
6
CONTINUOUS
10
77.7967
20
-61.5495
11
77.8187
21
-61.5609
0
LINE
8
BLACK
6
CONTINUOUS
10
77.8187
20
-61.5609
11
77.8381
21
-61.5763
0
LINE
8
BLACK
6
CONTINUOUS
10
77.8381
20
-61.5763
11
77.8541
21
-61.5953
0
LINE
8
BLACK
6
CONTINUOUS
10
77.8541
20
-61.5953
11
77.8661
21
-61.617
0
LINE
8
BLACK
6
CONTINUOUS
10
77.8661
20
-61.617
11
77.8737
21
-61.6406
0
LINE
8
BLACK
6
CONTINUOUS
10
77.8737
20
-61.6406
11
77.8765
21
-61.6652
0
LINE
8
BLACK
6
CONTINUOUS
10
77.8765
20
-61.6652
11
77.8745
21
-61.6899
0
LINE
8
BLACK
6
CONTINUOUS
10
77.8745
20
-61.6899
11
77.8678
21
-61.7137
0
LINE
8
BLACK
6
CONTINUOUS
10
77.8678
20
-61.7137
11
77.8565
21
-61.7358
0
LINE
8
BLACK
6
CONTINUOUS
10
77.8565
20
-61.7358
11
77.8412
21
-61.7553
0
LINE
8
BLACK
6
CONTINUOUS
10
77.8412
20
-61.7553
11
77.8224
21
-61.7714
0
LINE
8
BLACK
6
CONTINUOUS
10
77.8224
20
-61.7714
11
77.2718
21
-62.1568
0
LINE
8
BLACK
6
CONTINUOUS
10
77.2718
20
-62.1568
11
77.2718
21
-62.2661
0
LINE
8
BLACK
6
CONTINUOUS
10
77.2718
20
-62.2661
11
77.7495
21
-62.2661
0
LINE
8
BLACK
6
CONTINUOUS
10
77.7495
20
-62.2661
11
77.7513
21
-62.2661
0
LINE
8
BLACK
6
CONTINUOUS
10
77.7513
20
-62.2661
11
77.7759
21
-62.2689
0
LINE
8
BLACK
6
CONTINUOUS
10
77.7759
20
-62.2689
11
77.7996
21
-62.2764
0
LINE
8
BLACK
6
CONTINUOUS
10
77.7996
20
-62.2764
11
77.8213
21
-62.2883
0
LINE
8
BLACK
6
CONTINUOUS
10
77.8213
20
-62.2883
11
77.8403
21
-62.3042
0
LINE
8
BLACK
6
CONTINUOUS
10
77.8403
20
-62.3042
11
77.8558
21
-62.3236
0
LINE
8
BLACK
6
CONTINUOUS
10
77.8558
20
-62.3236
11
77.8673
21
-62.3455
0
LINE
8
BLACK
6
CONTINUOUS
10
77.8673
20
-62.3455
11
77.8743
21
-62.3693
0
LINE
8
BLACK
6
CONTINUOUS
10
77.8743
20
-62.3693
11
77.8765
21
-62.394
0
LINE
8
BLACK
6
CONTINUOUS
10
77.8765
20
-62.394
11
77.8739
21
-62.4186
0
LINE
8
BLACK
6
CONTINUOUS
10
77.8739
20
-62.4186
11
77.8666
21
-62.4423
0
LINE
8
BLACK
6
CONTINUOUS
10
77.8666
20
-62.4423
11
77.8548
21
-62.4641
0
LINE
8
BLACK
6
CONTINUOUS
10
77.8548
20
-62.4641
11
77.839
21
-62.4832
0
LINE
8
BLACK
6
CONTINUOUS
10
77.839
20
-62.4832
11
77.8198
21
-62.4989
0
LINE
8
BLACK
6
CONTINUOUS
10
77.8198
20
-62.4989
11
77.7979
21
-62.5105
0
LINE
8
BLACK
6
CONTINUOUS
10
77.7979
20
-62.5105
11
77.7742
21
-62.5177
0
LINE
8
BLACK
6
CONTINUOUS
10
77.7742
20
-62.5177
11
77.7495
21
-62.5201
0
LINE
8
BLACK
6
CONTINUOUS
10
77.7495
20
-62.5201
11
76.4795
21
-62.5201
0
LINE
8
BLACK
6
CONTINUOUS
10
76.4795
20
-62.5201
11
76.4787
21
-62.5201
0
LINE
8
BLACK
6
CONTINUOUS
10
76.4787
20
-62.5201
11
76.4786
21
-62.5201
0
LINE
8
BLACK
6
CONTINUOUS
10
76.4786
20
-62.5201
11
76.4786
21
-62.5201
0
LINE
8
BLACK
6
CONTINUOUS
10
76.4786
20
-62.5201
11
76.4778
21
-62.5201
0
LINE
8
BLACK
6
CONTINUOUS
10
76.4778
20
-62.5201
11
76.4658
21
-62.5187
0
LINE
8
BLACK
6
CONTINUOUS
10
76.4658
20
-62.5187
11
76.454
21
-62.5175
0
LINE
8
BLACK
6
CONTINUOUS
10
76.454
20
-62.5175
11
76.4536
21
-62.5174
0
LINE
8
BLACK
6
CONTINUOUS
10
76.4536
20
-62.5174
11
76.4531
21
-62.5173
0
LINE
8
BLACK
6
CONTINUOUS
10
76.4531
20
-62.5173
11
76.4417
21
-62.5137
0
LINE
8
BLACK
6
CONTINUOUS
10
76.4417
20
-62.5137
11
76.4303
21
-62.5102
0
LINE
8
BLACK
6
CONTINUOUS
10
76.4303
20
-62.5102
11
76.4299
21
-62.51
0
LINE
8
BLACK
6
CONTINUOUS
10
76.4299
20
-62.51
11
76.4295
21
-62.5098
0
LINE
8
BLACK
6
CONTINUOUS
10
76.4295
20
-62.5098
11
76.419
21
-62.5041
0
LINE
8
BLACK
6
CONTINUOUS
10
76.419
20
-62.5041
11
76.4085
21
-62.4984
0
LINE
8
BLACK
6
CONTINUOUS
10
76.4085
20
-62.4984
11
76.4082
21
-62.4981
0
LINE
8
BLACK
6
CONTINUOUS
10
76.4082
20
-62.4981
11
76.4078
21
-62.4979
0
LINE
8
BLACK
6
CONTINUOUS
10
76.4078
20
-62.4979
11
76.3986
21
-62.4902
0
LINE
8
BLACK
6
CONTINUOUS
10
76.3986
20
-62.4902
11
76.3894
21
-62.4826
0
LINE
8
BLACK
6
CONTINUOUS
10
76.3894
20
-62.4826
11
76.3891
21
-62.4822
0
LINE
8
BLACK
6
CONTINUOUS
10
76.3891
20
-62.4822
11
76.3888
21
-62.482
0
LINE
8
BLACK
6
CONTINUOUS
10
76.3888
20
-62.482
11
76.3813
21
-62.4726
0
LINE
8
BLACK
6
CONTINUOUS
10
76.3813
20
-62.4726
11
76.3737
21
-62.4634
0
LINE
8
BLACK
6
CONTINUOUS
10
76.3737
20
-62.4634
11
76.3735
21
-62.463
0
LINE
8
BLACK
6
CONTINUOUS
10
76.3735
20
-62.463
11
76.3733
21
-62.4626
0
LINE
8
BLACK
6
CONTINUOUS
10
76.3733
20
-62.4626
11
76.3677
21
-62.452
0
LINE
8
BLACK
6
CONTINUOUS
10
76.3677
20
-62.452
11
76.3621
21
-62.4415
0
LINE
8
BLACK
6
CONTINUOUS
10
76.3621
20
-62.4415
11
76.362
21
-62.4411
0
LINE
8
BLACK
6
CONTINUOUS
10
76.362
20
-62.4411
11
76.3618
21
-62.4407
0
LINE
8
BLACK
6
CONTINUOUS
10
76.3618
20
-62.4407
11
76.3584
21
-62.4292
0
LINE
8
BLACK
6
CONTINUOUS
10
76.3584
20
-62.4292
11
76.3549
21
-62.4178
0
LINE
8
BLACK
6
CONTINUOUS
10
76.3549
20
-62.4178
11
76.3549
21
-62.4173
0
LINE
8
BLACK
6
CONTINUOUS
10
76.3549
20
-62.4173
11
76.3548
21
-62.4169
0
LINE
8
BLACK
6
CONTINUOUS
10
76.3548
20
-62.4169
11
76.3537
21
-62.405
0
LINE
8
BLACK
6
CONTINUOUS
10
76.3537
20
-62.405
11
76.3525
21
-62.3931
0
LINE
8
BLACK
6
CONTINUOUS
10
76.3525
20
-62.3931
11
76.3525
21
-61.9093
0
LINE
8
BLACK
6
CONTINUOUS
10
76.3525
20
-61.9093
11
76.3525
21
-61.9075
0
LINE
8
BLACK
6
CONTINUOUS
10
76.3525
20
-61.9075
11
76.353
21
-61.9038
0
LINE
8
BLACK
6
CONTINUOUS
10
76.353
20
-61.9038
11
76.3529
21
-61.9001
0
LINE
8
BLACK
6
CONTINUOUS
10
76.3529
20
-61.9001
11
76.3543
21
-61.8915
0
LINE
8
BLACK
6
CONTINUOUS
10
76.3543
20
-61.8915
11
76.3553
21
-61.8829
0
LINE
8
BLACK
6
CONTINUOUS
10
76.3553
20
-61.8829
11
76.3564
21
-61.8793
0
LINE
8
BLACK
6
CONTINUOUS
10
76.3564
20
-61.8793
11
76.3571
21
-61.8756
0
LINE
8
BLACK
6
CONTINUOUS
10
76.3571
20
-61.8756
11
76.3602
21
-61.8675
0
LINE
8
BLACK
6
CONTINUOUS
10
76.3602
20
-61.8675
11
76.3628
21
-61.8593
0
LINE
8
BLACK
6
CONTINUOUS
10
76.3628
20
-61.8593
11
76.3646
21
-61.856
0
LINE
8
BLACK
6
CONTINUOUS
10
76.3646
20
-61.856
11
76.3659
21
-61.8525
0
LINE
8
BLACK
6
CONTINUOUS
10
76.3659
20
-61.8525
11
76.4264
21
-61.7315
0
LINE
8
BLACK
6
CONTINUOUS
10
76.4264
20
-61.7315
11
76.4272
21
-61.73
0
LINE
8
BLACK
6
CONTINUOUS
10
76.4272
20
-61.73
11
76.4311
21
-61.724
0
LINE
8
BLACK
6
CONTINUOUS
10
76.4311
20
-61.724
11
76.4345
21
-61.7177
0
LINE
8
BLACK
6
CONTINUOUS
10
76.4345
20
-61.7177
11
76.4378
21
-61.7136
0
LINE
8
BLACK
6
CONTINUOUS
10
76.4378
20
-61.7136
11
76.4407
21
-61.7092
0
LINE
8
BLACK
6
CONTINUOUS
10
76.4407
20
-61.7092
11
76.4457
21
-61.704
0
LINE
8
BLACK
6
CONTINUOUS
10
76.4457
20
-61.704
11
76.4502
21
-61.6985
0
LINE
8
BLACK
6
CONTINUOUS
10
76.4502
20
-61.6985
11
76.5107
21
-61.6381
0
LINE
8
BLACK
6
CONTINUOUS
10
76.5107
20
-61.6381
11
76.5119
21
-61.6368
0
LINE
8
BLACK
6
CONTINUOUS
10
76.5119
20
-61.6368
11
76.5175
21
-61.6324
0
LINE
8
BLACK
6
CONTINUOUS
10
76.5175
20
-61.6324
11
76.5227
21
-61.6275
0
LINE
8
BLACK
6
CONTINUOUS
10
76.5227
20
-61.6275
11
76.5272
21
-61.6246
0
LINE
8
BLACK
6
CONTINUOUS
10
76.5272
20
-61.6246
11
76.5313
21
-61.6213
0
LINE
8
BLACK
6
CONTINUOUS
10
76.5313
20
-61.6213
11
76.5376
21
-61.6181
0
LINE
8
BLACK
6
CONTINUOUS
10
76.5376
20
-61.6181
11
76.5437
21
-61.6143
0
LINE
8
BLACK
6
CONTINUOUS
10
76.5437
20
-61.6143
11
76.6646
21
-61.5538
0
LINE
8
BLACK
6
CONTINUOUS
10
76.6646
20
-61.5538
11
76.6662
21
-61.553
0
LINE
8
BLACK
6
CONTINUOUS
10
76.6662
20
-61.553
11
76.6697
21
-61.5517
0
LINE
8
BLACK
6
CONTINUOUS
10
76.6697
20
-61.5517
11
76.673
21
-61.55
0
LINE
8
BLACK
6
CONTINUOUS
10
76.673
20
-61.55
11
76.6813
21
-61.5475
0
LINE
8
BLACK
6
CONTINUOUS
10
76.6813
20
-61.5475
11
76.6895
21
-61.5445
0
LINE
8
BLACK
6
CONTINUOUS
10
76.6895
20
-61.5445
11
76.6932
21
-61.5439
0
LINE
8
BLACK
6
CONTINUOUS
10
76.6932
20
-61.5439
11
76.6968
21
-61.5428
0
LINE
8
BLACK
6
CONTINUOUS
10
76.6968
20
-61.5428
11
76.7054
21
-61.542
0
LINE
8
BLACK
6
CONTINUOUS
10
76.7054
20
-61.542
11
76.714
21
-61.5406
0
LINE
8
BLACK
6
CONTINUOUS
10
76.714
20
-61.5406
11
76.7177
21
-61.5407
0
LINE
8
BLACK
6
CONTINUOUS
10
76.7177
20
-61.5407
11
76.7214
21
-61.5404
0
LINE
8
BLACK
6
CONTINUOUS
10
76.7214
20
-61.5404
11
76.9029
21
-61.5404
0
LINE
8
BLACK
6
CONTINUOUS
10
76.9029
20
-61.5404
11
76.9046
21
-61.5404
0
LINE
8
BLACK
6
CONTINUOUS
10
76.7514
20
-61.7944
11
76.6757
21
-61.8322
0
LINE
8
BLACK
6
CONTINUOUS
10
76.6757
20
-61.8322
11
76.6444
21
-61.8636
0
LINE
8
BLACK
6
CONTINUOUS
10
76.6444
20
-61.8636
11
76.6065
21
-61.9393
0
LINE
8
BLACK
6
CONTINUOUS
10
76.6065
20
-61.9393
11
76.6065
21
-62.2661
0
LINE
8
BLACK
6
CONTINUOUS
10
76.6065
20
-62.2661
11
77.0178
21
-62.2661
0
LINE
8
BLACK
6
CONTINUOUS
10
77.0178
20
-62.2661
11
77.0178
21
-61.9393
0
LINE
8
BLACK
6
CONTINUOUS
10
77.0178
20
-61.9393
11
76.9799
21
-61.8636
0
LINE
8
BLACK
6
CONTINUOUS
10
76.9799
20
-61.8636
11
76.9486
21
-61.8322
0
LINE
8
BLACK
6
CONTINUOUS
10
76.9486
20
-61.8322
11
76.8729
21
-61.7944
0
LINE
8
BLACK
6
CONTINUOUS
10
76.8729
20
-61.7944
11
76.7514
21
-61.7944
0
LINE
8
BLACK
6
CONTINUOUS
10
77.7751
20
-60.3335
11
77.7987
21
-60.3408
0
LINE
8
BLACK
6
CONTINUOUS
10
77.7987
20
-60.3408
11
77.8205
21
-60.3526
0
LINE
8
BLACK
6
CONTINUOUS
10
77.8205
20
-60.3526
11
77.8396
21
-60.3684
0
LINE
8
BLACK
6
CONTINUOUS
10
77.8396
20
-60.3684
11
77.8553
21
-60.3876
0
LINE
8
BLACK
6
CONTINUOUS
10
77.8553
20
-60.3876
11
77.8669
21
-60.4095
0
LINE
8
BLACK
6
CONTINUOUS
10
77.8669
20
-60.4095
11
77.8741
21
-60.4332
0
LINE
8
BLACK
6
CONTINUOUS
10
77.8741
20
-60.4332
11
77.8765
21
-60.4579
0
LINE
8
BLACK
6
CONTINUOUS
10
77.8765
20
-60.4579
11
77.8765
21
-61.1836
0
LINE
8
BLACK
6
CONTINUOUS
10
77.8765
20
-61.1836
11
77.8765
21
-61.1853
0
LINE
8
BLACK
6
CONTINUOUS
10
77.8765
20
-61.1853
11
77.8737
21
-61.21
0
LINE
8
BLACK
6
CONTINUOUS
10
77.8737
20
-61.21
11
77.8663
21
-61.2336
0
LINE
8
BLACK
6
CONTINUOUS
10
77.8663
20
-61.2336
11
77.8543
21
-61.2553
0
LINE
8
BLACK
6
CONTINUOUS
10
77.8543
20
-61.2553
11
77.8384
21
-61.2743
0
LINE
8
BLACK
6
CONTINUOUS
10
77.8384
20
-61.2743
11
77.8191
21
-61.2898
0
LINE
8
BLACK
6
CONTINUOUS
10
77.8191
20
-61.2898
11
77.7971
21
-61.3013
0
LINE
8
BLACK
6
CONTINUOUS
10
77.7971
20
-61.3013
11
77.7733
21
-61.3083
0
LINE
8
BLACK
6
CONTINUOUS
10
77.7733
20
-61.3083
11
77.7486
21
-61.3106
0
LINE
8
BLACK
6
CONTINUOUS
10
77.7486
20
-61.3106
11
77.724
21
-61.308
0
LINE
8
BLACK
6
CONTINUOUS
10
77.724
20
-61.308
11
77.7003
21
-61.3006
0
LINE
8
BLACK
6
CONTINUOUS
10
77.7003
20
-61.3006
11
77.6785
21
-61.2889
0
LINE
8
BLACK
6
CONTINUOUS
10
77.6785
20
-61.2889
11
77.6594
21
-61.2731
0
LINE
8
BLACK
6
CONTINUOUS
10
77.6594
20
-61.2731
11
77.6437
21
-61.2539
0
LINE
8
BLACK
6
CONTINUOUS
10
77.6437
20
-61.2539
11
77.6321
21
-61.232
0
LINE
8
BLACK
6
CONTINUOUS
10
77.6321
20
-61.232
11
77.6249
21
-61.2082
0
LINE
8
BLACK
6
CONTINUOUS
10
77.6249
20
-61.2082
11
77.6225
21
-61.1836
0
LINE
8
BLACK
6
CONTINUOUS
10
77.6225
20
-61.1836
11
77.6225
21
-60.9477
0
LINE
8
BLACK
6
CONTINUOUS
10
77.6225
20
-60.9477
11
76.8466
21
-60.9477
0
LINE
8
BLACK
6
CONTINUOUS
10
76.8466
20
-60.9477
11
76.8717
21
-60.9728
0
LINE
8
BLACK
6
CONTINUOUS
10
76.8717
20
-60.9728
11
76.873
21
-60.9741
0
LINE
8
BLACK
6
CONTINUOUS
10
76.873
20
-60.9741
11
76.8774
21
-60.9797
0
LINE
8
BLACK
6
CONTINUOUS
10
76.8774
20
-60.9797
11
76.8823
21
-60.9848
0
LINE
8
BLACK
6
CONTINUOUS
10
76.8823
20
-60.9848
11
76.8851
21
-60.9893
0
LINE
8
BLACK
6
CONTINUOUS
10
76.8851
20
-60.9893
11
76.8884
21
-60.9934
0
LINE
8
BLACK
6
CONTINUOUS
10
76.8884
20
-60.9934
11
76.8917
21
-60.9998
0
LINE
8
BLACK
6
CONTINUOUS
10
76.8917
20
-60.9998
11
76.8955
21
-61.0058
0
LINE
8
BLACK
6
CONTINUOUS
10
76.8955
20
-61.0058
11
76.956
21
-61.1268
0
LINE
8
BLACK
6
CONTINUOUS
10
76.956
20
-61.1268
11
76.9568
21
-61.1284
0
LINE
8
BLACK
6
CONTINUOUS
10
76.9568
20
-61.1284
11
76.9653
21
-61.1516
0
LINE
8
BLACK
6
CONTINUOUS
10
76.9653
20
-61.1516
11
76.9692
21
-61.1761
0
LINE
8
BLACK
6
CONTINUOUS
10
76.9692
20
-61.1761
11
76.9682
21
-61.2009
0
LINE
8
BLACK
6
CONTINUOUS
10
76.9682
20
-61.2009
11
76.9624
21
-61.225
0
LINE
8
BLACK
6
CONTINUOUS
10
76.9624
20
-61.225
11
76.9521
21
-61.2475
0
LINE
8
BLACK
6
CONTINUOUS
10
76.9521
20
-61.2475
11
76.9376
21
-61.2676
0
LINE
8
BLACK
6
CONTINUOUS
10
76.9376
20
-61.2676
11
76.9195
21
-61.2845
0
LINE
8
BLACK
6
CONTINUOUS
10
76.9195
20
-61.2845
11
76.8984
21
-61.2976
0
LINE
8
BLACK
6
CONTINUOUS
10
76.8984
20
-61.2976
11
76.8752
21
-61.3063
0
LINE
8
BLACK
6
CONTINUOUS
10
76.8752
20
-61.3063
11
76.8507
21
-61.3103
0
LINE
8
BLACK
6
CONTINUOUS
10
76.8507
20
-61.3103
11
76.8259
21
-61.3095
0
LINE
8
BLACK
6
CONTINUOUS
10
76.8259
20
-61.3095
11
76.8018
21
-61.3039
0
LINE
8
BLACK
6
CONTINUOUS
10
76.8018
20
-61.3039
11
76.7792
21
-61.2937
0
LINE
8
BLACK
6
CONTINUOUS
10
76.7792
20
-61.2937
11
76.759
21
-61.2794
0
LINE
8
BLACK
6
CONTINUOUS
10
76.759
20
-61.2794
11
76.742
21
-61.2613
0
LINE
8
BLACK
6
CONTINUOUS
10
76.742
20
-61.2613
11
76.7288
21
-61.2404
0
LINE
8
BLACK
6
CONTINUOUS
10
76.7288
20
-61.2404
11
76.6775
21
-61.1378
0
LINE
8
BLACK
6
CONTINUOUS
10
76.6775
20
-61.1378
11
76.58
21
-61.0404
0
LINE
8
BLACK
6
CONTINUOUS
10
76.58
20
-61.0404
11
76.4091
21
-60.9264
0
LINE
8
BLACK
6
CONTINUOUS
10
76.4091
20
-60.9264
11
76.4078
21
-60.9255
0
LINE
8
BLACK
6
CONTINUOUS
10
76.4078
20
-60.9255
11
76.4078
21
-60.9255
0
LINE
8
BLACK
6
CONTINUOUS
10
76.4078
20
-60.9255
11
76.4078
21
-60.9255
0
LINE
8
BLACK
6
CONTINUOUS
10
76.4078
20
-60.9255
11
76.4076
21
-60.9254
0
LINE
8
BLACK
6
CONTINUOUS
10
76.4076
20
-60.9254
11
76.3979
21
-60.9172
0
LINE
8
BLACK
6
CONTINUOUS
10
76.3979
20
-60.9172
11
76.3888
21
-60.9096
0
LINE
8
BLACK
6
CONTINUOUS
10
76.3888
20
-60.9096
11
76.3887
21
-60.9095
0
LINE
8
BLACK
6
CONTINUOUS
10
76.3887
20
-60.9095
11
76.3886
21
-60.9094
0
LINE
8
BLACK
6
CONTINUOUS
10
76.3886
20
-60.9094
11
76.3809
21
-60.8998
0
LINE
8
BLACK
6
CONTINUOUS
10
76.3809
20
-60.8998
11
76.3733
21
-60.8903
0
LINE
8
BLACK
6
CONTINUOUS
10
76.3733
20
-60.8903
11
76.3732
21
-60.8902
0
LINE
8
BLACK
6
CONTINUOUS
10
76.3732
20
-60.8902
11
76.3731
21
-60.8901
0
LINE
8
BLACK
6
CONTINUOUS
10
76.3731
20
-60.8901
11
76.3675
21
-60.8792
0
LINE
8
BLACK
6
CONTINUOUS
10
76.3675
20
-60.8792
11
76.3618
21
-60.8683
0
LINE
8
BLACK
6
CONTINUOUS
10
76.3618
20
-60.8683
11
76.3617
21
-60.8682
0
LINE
8
BLACK
6
CONTINUOUS
10
76.3617
20
-60.8682
11
76.3617
21
-60.8681
0
LINE
8
BLACK
6
CONTINUOUS
10
76.3617
20
-60.8681
11
76.3581
21
-60.856
0
LINE
8
BLACK
6
CONTINUOUS
10
76.3581
20
-60.856
11
76.3548
21
-60.8445
0
LINE
8
BLACK
6
CONTINUOUS
10
76.3548
20
-60.8445
11
76.3548
21
-60.8444
0
LINE
8
BLACK
6
CONTINUOUS
10
76.3548
20
-60.8444
11
76.3547
21
-60.8443
0
LINE
8
BLACK
6
CONTINUOUS
10
76.3547
20
-60.8443
11
76.3536
21
-60.8316
0
LINE
8
BLACK
6
CONTINUOUS
10
76.3536
20
-60.8316
11
76.3525
21
-60.8198
0
LINE
8
BLACK
6
CONTINUOUS
10
76.3525
20
-60.8198
11
76.3525
21
-60.8197
0
LINE
8
BLACK
6
CONTINUOUS
10
76.3525
20
-60.8197
11
76.3525
21
-60.8196
0
LINE
8
BLACK
6
CONTINUOUS
10
76.3525
20
-60.8196
11
76.3539
21
-60.8072
0
LINE
8
BLACK
6
CONTINUOUS
10
76.3539
20
-60.8072
11
76.3551
21
-60.7952
0
LINE
8
BLACK
6
CONTINUOUS
10
76.3551
20
-60.7952
11
76.3551
21
-60.7951
0
LINE
8
BLACK
6
CONTINUOUS
10
76.3551
20
-60.7951
11
76.3552
21
-60.795
0
LINE
8
BLACK
6
CONTINUOUS
10
76.3552
20
-60.795
11
76.3588
21
-60.7833
0
LINE
8
BLACK
6
CONTINUOUS
10
76.3588
20
-60.7833
11
76.3624
21
-60.7715
0
LINE
8
BLACK
6
CONTINUOUS
10
76.3624
20
-60.7715
11
76.3625
21
-60.7714
0
LINE
8
BLACK
6
CONTINUOUS
10
76.3625
20
-60.7714
11
76.3625
21
-60.7713
0
LINE
8
BLACK
6
CONTINUOUS
10
76.3625
20
-60.7713
11
76.3683
21
-60.7606
0
LINE
8
BLACK
6
CONTINUOUS
10
76.3683
20
-60.7606
11
76.3742
21
-60.7497
0
LINE
8
BLACK
6
CONTINUOUS
10
76.3742
20
-60.7497
11
76.3743
21
-60.7496
0
LINE
8
BLACK
6
CONTINUOUS
10
76.3743
20
-60.7496
11
76.3743
21
-60.7495
0
LINE
8
BLACK
6
CONTINUOUS
10
76.3743
20
-60.7495
11
76.3823
21
-60.74
0
LINE
8
BLACK
6
CONTINUOUS
10
76.3823
20
-60.74
11
76.39
21
-60.7306
0
LINE
8
BLACK
6
CONTINUOUS
10
76.39
20
-60.7306
11
76.3901
21
-60.7305
0
LINE
8
BLACK
6
CONTINUOUS
10
76.3901
20
-60.7305
11
76.3902
21
-60.7305
0
LINE
8
BLACK
6
CONTINUOUS
10
76.3902
20
-60.7305
11
76.3998
21
-60.7227
0
LINE
8
BLACK
6
CONTINUOUS
10
76.3998
20
-60.7227
11
76.4092
21
-60.7149
0
LINE
8
BLACK
6
CONTINUOUS
10
76.4092
20
-60.7149
11
76.4093
21
-60.7149
0
LINE
8
BLACK
6
CONTINUOUS
10
76.4093
20
-60.7149
11
76.4094
21
-60.7148
0
LINE
8
BLACK
6
CONTINUOUS
10
76.4094
20
-60.7148
11
76.4203
21
-60.709
0
LINE
8
BLACK
6
CONTINUOUS
10
76.4203
20
-60.709
11
76.4311
21
-60.7033
0
LINE
8
BLACK
6
CONTINUOUS
10
76.4311
20
-60.7033
11
76.4312
21
-60.7033
0
LINE
8
BLACK
6
CONTINUOUS
10
76.4312
20
-60.7033
11
76.4313
21
-60.7032
0
LINE
8
BLACK
6
CONTINUOUS
10
76.4313
20
-60.7032
11
76.4433
21
-60.6996
0
LINE
8
BLACK
6
CONTINUOUS
10
76.4433
20
-60.6996
11
76.4549
21
-60.6961
0
LINE
8
BLACK
6
CONTINUOUS
10
76.4549
20
-60.6961
11
76.455
21
-60.6961
0
LINE
8
BLACK
6
CONTINUOUS
10
76.455
20
-60.6961
11
76.455
21
-60.6961
0
LINE
8
BLACK
6
CONTINUOUS
10
76.455
20
-60.6961
11
76.4675
21
-60.6949
0
LINE
8
BLACK
6
CONTINUOUS
10
76.4675
20
-60.6949
11
76.4795
21
-60.6937
0
LINE
8
BLACK
6
CONTINUOUS
10
76.4795
20
-60.6937
11
77.6225
21
-60.6937
0
LINE
8
BLACK
6
CONTINUOUS
10
77.6225
20
-60.6937
11
77.6225
21
-60.4579
0
LINE
8
BLACK
6
CONTINUOUS
10
77.6225
20
-60.4579
11
77.6225
21
-60.4561
0
LINE
8
BLACK
6
CONTINUOUS
10
77.6225
20
-60.4561
11
77.6253
21
-60.4315
0
LINE
8
BLACK
6
CONTINUOUS
10
77.6253
20
-60.4315
11
77.6328
21
-60.4078
0
LINE
8
BLACK
6
CONTINUOUS
10
77.6328
20
-60.4078
11
77.6447
21
-60.3861
0
LINE
8
BLACK
6
CONTINUOUS
10
77.6447
20
-60.3861
11
77.6607
21
-60.3671
0
LINE
8
BLACK
6
CONTINUOUS
10
77.6607
20
-60.3671
11
77.68
21
-60.3516
0
LINE
8
BLACK
6
CONTINUOUS
10
77.68
20
-60.3516
11
77.7019
21
-60.3401
0
LINE
8
BLACK
6
CONTINUOUS
10
77.7019
20
-60.3401
11
77.7257
21
-60.3331
0
LINE
8
BLACK
6
CONTINUOUS
10
77.7257
20
-60.3331
11
77.7504
21
-60.3309
0
LINE
8
BLACK
6
CONTINUOUS
10
77.7504
20
-60.3309
11
77.7751
21
-60.3335
0
LINE
8
BLACK
6
CONTINUOUS
10
67.7097
20
-57.9005
11
67.7098
21
-57.9005
0
LINE
8
BLACK
6
CONTINUOUS
10
67.7098
20
-57.9005
11
67.7195
21
-57.9014
0
LINE
8
BLACK
6
CONTINUOUS
10
67.7195
20
-57.9014
11
67.7195
21
-57.9014
0
LINE
8
BLACK
6
CONTINUOUS
10
67.7195
20
-57.9014
11
67.7195
21
-57.9014
0
LINE
8
BLACK
6
CONTINUOUS
10
67.7195
20
-57.9014
11
67.7209
21
-57.9016
0
LINE
8
BLACK
6
CONTINUOUS
10
67.7209
20
-57.9016
11
67.7297
21
-57.9034
0
LINE
8
BLACK
6
CONTINUOUS
10
67.7297
20
-57.9034
11
67.7386
21
-57.9052
0
LINE
8
BLACK
6
CONTINUOUS
10
67.7386
20
-57.9052
11
67.7479
21
-57.908
0
LINE
8
BLACK
6
CONTINUOUS
10
67.7479
20
-57.908
11
67.748
21
-57.908
0
LINE
8
BLACK
6
CONTINUOUS
10
67.748
20
-57.908
11
67.748
21
-57.908
0
LINE
8
BLACK
6
CONTINUOUS
10
67.748
20
-57.908
11
67.7493
21
-57.9085
0
LINE
8
BLACK
6
CONTINUOUS
10
67.7493
20
-57.9085
11
67.7576
21
-57.912
0
LINE
8
BLACK
6
CONTINUOUS
10
67.7576
20
-57.912
11
67.766
21
-57.9155
0
LINE
8
BLACK
6
CONTINUOUS
10
67.766
20
-57.9155
11
67.7746
21
-57.9201
0
LINE
8
BLACK
6
CONTINUOUS
10
67.7746
20
-57.9201
11
67.7758
21
-57.9207
0
LINE
8
BLACK
6
CONTINUOUS
10
67.7758
20
-57.9207
11
67.7833
21
-57.9258
0
LINE
8
BLACK
6
CONTINUOUS
10
67.7833
20
-57.9258
11
67.7909
21
-57.9309
0
LINE
8
BLACK
6
CONTINUOUS
10
67.7909
20
-57.9309
11
67.7984
21
-57.937
0
LINE
8
BLACK
6
CONTINUOUS
10
67.7984
20
-57.937
11
67.7984
21
-57.937
0
LINE
8
BLACK
6
CONTINUOUS
10
67.7984
20
-57.937
11
67.7984
21
-57.937
0
LINE
8
BLACK
6
CONTINUOUS
10
67.7984
20
-57.937
11
67.7995
21
-57.9379
0
LINE
8
BLACK
6
CONTINUOUS
10
67.7995
20
-57.9379
11
67.8058
21
-57.9444
0
LINE
8
BLACK
6
CONTINUOUS
10
67.8058
20
-57.9444
11
67.8123
21
-57.9508
0
LINE
8
BLACK
6
CONTINUOUS
10
67.8123
20
-57.9508
11
67.8185
21
-57.9583
0
LINE
8
BLACK
6
CONTINUOUS
10
67.8185
20
-57.9583
11
67.8185
21
-57.9583
0
LINE
8
BLACK
6
CONTINUOUS
10
67.8185
20
-57.9583
11
67.8185
21
-57.9583
0
LINE
8
BLACK
6
CONTINUOUS
10
67.8185
20
-57.9583
11
67.8194
21
-57.9594
0
LINE
8
BLACK
6
CONTINUOUS
10
67.8194
20
-57.9594
11
67.8243
21
-57.967
0
LINE
8
BLACK
6
CONTINUOUS
10
67.8243
20
-57.967
11
67.8294
21
-57.9745
0
LINE
8
BLACK
6
CONTINUOUS
10
67.8294
20
-57.9745
11
67.8341
21
-57.9831
0
LINE
8
BLACK
6
CONTINUOUS
10
67.8341
20
-57.9831
11
67.8341
21
-57.9831
0
LINE
8
BLACK
6
CONTINUOUS
10
67.8341
20
-57.9831
11
67.8341
21
-57.9831
0
LINE
8
BLACK
6
CONTINUOUS
10
67.8341
20
-57.9831
11
67.8347
21
-57.9843
0
LINE
8
BLACK
6
CONTINUOUS
10
67.8347
20
-57.9843
11
67.8381
21
-57.9927
0
LINE
8
BLACK
6
CONTINUOUS
10
67.8381
20
-57.9927
11
67.8416
21
-58.001
0
LINE
8
BLACK
6
CONTINUOUS
10
67.8416
20
-58.001
11
67.8445
21
-58.0104
0
LINE
8
BLACK
6
CONTINUOUS
10
67.8445
20
-58.0104
11
67.8449
21
-58.0117
0
LINE
8
BLACK
6
CONTINUOUS
10
67.8449
20
-58.0117
11
67.8466
21
-58.0206
0
LINE
8
BLACK
6
CONTINUOUS
10
67.8466
20
-58.0206
11
67.8484
21
-58.0295
0
LINE
8
BLACK
6
CONTINUOUS
10
67.8484
20
-58.0295
11
67.8495
21
-58.0392
0
LINE
8
BLACK
6
CONTINUOUS
10
67.8495
20
-58.0392
11
67.8496
21
-58.0406
0
LINE
8
BLACK
6
CONTINUOUS
10
67.8496
20
-58.0406
11
67.8495
21
-58.0496
0
LINE
8
BLACK
6
CONTINUOUS
10
67.8495
20
-58.0496
11
67.8496
21
-58.0587
0
LINE
8
BLACK
6
CONTINUOUS
10
67.8496
20
-58.0587
11
67.8487
21
-58.0684
0
LINE
8
BLACK
6
CONTINUOUS
10
67.8487
20
-58.0684
11
67.8486
21
-58.0698
0
LINE
8
BLACK
6
CONTINUOUS
10
67.8486
20
-58.0698
11
67.8468
21
-58.0786
0
LINE
8
BLACK
6
CONTINUOUS
10
67.8468
20
-58.0786
11
67.845
21
-58.0876
0
LINE
8
BLACK
6
CONTINUOUS
10
67.845
20
-58.0876
11
67.8423
21
-58.097
0
LINE
8
BLACK
6
CONTINUOUS
10
67.8423
20
-58.097
11
67.8423
21
-58.097
0
LINE
8
BLACK
6
CONTINUOUS
10
67.8423
20
-58.097
11
67.8423
21
-58.097
0
LINE
8
BLACK
6
CONTINUOUS
10
67.8423
20
-58.097
11
67.8419
21
-58.0983
0
LINE
8
BLACK
6
CONTINUOUS
10
67.8419
20
-58.0983
11
67.8384
21
-58.1067
0
LINE
8
BLACK
6
CONTINUOUS
10
67.8384
20
-58.1067
11
67.835
21
-58.1151
0
LINE
8
BLACK
6
CONTINUOUS
10
67.835
20
-58.1151
11
67.8305
21
-58.1237
0
LINE
8
BLACK
6
CONTINUOUS
10
67.8305
20
-58.1237
11
67.8298
21
-58.1249
0
LINE
8
BLACK
6
CONTINUOUS
10
67.8298
20
-58.1249
11
67.8248
21
-58.1324
0
LINE
8
BLACK
6
CONTINUOUS
10
67.8248
20
-58.1324
11
67.8198
21
-58.14
0
LINE
8
BLACK
6
CONTINUOUS
10
67.8198
20
-58.14
11
67.8137
21
-58.1476
0
LINE
8
BLACK
6
CONTINUOUS
10
67.8137
20
-58.1476
11
67.8128
21
-58.1487
0
LINE
8
BLACK
6
CONTINUOUS
10
67.8128
20
-58.1487
11
67.8064
21
-58.1551
0
LINE
8
BLACK
6
CONTINUOUS
10
67.8064
20
-58.1551
11
67.8
21
-58.1616
0
LINE
8
BLACK
6
CONTINUOUS
10
67.8
20
-58.1616
11
67.7925
21
-58.1679
0
LINE
8
BLACK
6
CONTINUOUS
10
67.7925
20
-58.1679
11
67.7925
21
-58.1679
0
LINE
8
BLACK
6
CONTINUOUS
10
67.7925
20
-58.1679
11
67.7925
21
-58.1679
0
LINE
8
BLACK
6
CONTINUOUS
10
67.7925
20
-58.1679
11
67.7914
21
-58.1688
0
LINE
8
BLACK
6
CONTINUOUS
10
67.7914
20
-58.1688
11
67.7839
21
-58.1738
0
LINE
8
BLACK
6
CONTINUOUS
10
67.7839
20
-58.1738
11
67.7764
21
-58.1789
0
LINE
8
BLACK
6
CONTINUOUS
10
67.7764
20
-58.1789
11
67.7679
21
-58.1836
0
LINE
8
BLACK
6
CONTINUOUS
10
67.7679
20
-58.1836
11
67.7679
21
-58.1836
0
LINE
8
BLACK
6
CONTINUOUS
10
67.7679
20
-58.1836
11
67.7679
21
-58.1836
0
LINE
8
BLACK
6
CONTINUOUS
10
67.7679
20
-58.1836
11
67.7666
21
-58.1843
0
LINE
8
BLACK
6
CONTINUOUS
10
67.7666
20
-58.1843
11
67.7583
21
-58.1877
0
LINE
8
BLACK
6
CONTINUOUS
10
67.7583
20
-58.1877
11
67.7499
21
-58.1913
0
LINE
8
BLACK
6
CONTINUOUS
10
67.7499
20
-58.1913
11
67.7406
21
-58.1942
0
LINE
8
BLACK
6
CONTINUOUS
10
67.7406
20
-58.1942
11
67.7406
21
-58.1942
0
LINE
8
BLACK
6
CONTINUOUS
10
67.7406
20
-58.1942
11
67.7406
21
-58.1942
0
LINE
8
BLACK
6
CONTINUOUS
10
67.7406
20
-58.1942
11
67.7393
21
-58.1946
0
LINE
8
BLACK
6
CONTINUOUS
10
67.7393
20
-58.1946
11
67.7305
21
-58.1964
0
LINE
8
BLACK
6
CONTINUOUS
10
67.7305
20
-58.1964
11
67.7215
21
-58.1983
0
LINE
8
BLACK
6
CONTINUOUS
10
67.7215
20
-58.1983
11
67.7199
21
-58.1985
0
LINE
8
BLACK
6
CONTINUOUS
10
67.7199
20
-58.1985
11
67.7196
21
-58.1986
0
LINE
8
BLACK
6
CONTINUOUS
10
67.7196
20
-58.1986
11
67.7159
21
-58.1989
0
LINE
8
BLACK
6
CONTINUOUS
10
67.7159
20
-58.1989
11
67.7118
21
-58.1994
0
LINE
8
BLACK
6
CONTINUOUS
10
67.7118
20
-58.1994
11
67.7105
21
-58.1995
0
LINE
8
BLACK
6
CONTINUOUS
10
67.7105
20
-58.1995
11
67.7098
21
-58.1995
0
LINE
8
BLACK
6
CONTINUOUS
10
67.7098
20
-58.1995
11
67.7098
21
-58.1995
0
LINE
8
BLACK
6
CONTINUOUS
10
67.7098
20
-58.1995
11
67.7098
21
-58.1995
0
LINE
8
BLACK
6
CONTINUOUS
10
67.7098
20
-58.1995
11
67.7097
21
-58.1995
0
LINE
8
BLACK
6
CONTINUOUS
10
67.7097
20
-58.1995
11
67.7049
21
-58.2
0
LINE
8
BLACK
6
CONTINUOUS
10
67.7049
20
-58.2
11
67.6951
21
-58.2
0
LINE
8
BLACK
6
CONTINUOUS
10
67.6951
20
-58.2
11
67.6903
21
-58.1995
0
LINE
8
BLACK
6
CONTINUOUS
10
67.6903
20
-58.1995
11
67.6902
21
-58.1995
0
LINE
8
BLACK
6
CONTINUOUS
10
67.6902
20
-58.1995
11
67.6805
21
-58.1986
0
LINE
8
BLACK
6
CONTINUOUS
10
67.6805
20
-58.1986
11
67.6805
21
-58.1986
0
LINE
8
BLACK
6
CONTINUOUS
10
67.6805
20
-58.1986
11
67.6805
21
-58.1986
0
LINE
8
BLACK
6
CONTINUOUS
10
67.6805
20
-58.1986
11
67.6791
21
-58.1984
0
LINE
8
BLACK
6
CONTINUOUS
10
67.6791
20
-58.1984
11
67.6703
21
-58.1965
0
LINE
8
BLACK
6
CONTINUOUS
10
67.6703
20
-58.1965
11
67.6614
21
-58.1948
0
LINE
8
BLACK
6
CONTINUOUS
10
67.6614
20
-58.1948
11
67.652
21
-58.192
0
LINE
8
BLACK
6
CONTINUOUS
10
67.652
20
-58.192
11
67.652
21
-58.192
0
LINE
8
BLACK
6
CONTINUOUS
10
67.652
20
-58.192
11
67.652
21
-58.192
0
LINE
8
BLACK
6
CONTINUOUS
10
67.652
20
-58.192
11
67.652
21
-58.192
0
LINE
8
BLACK
6
CONTINUOUS
10
67.652
20
-58.192
11
67.6507
21
-58.1915
0
LINE
8
BLACK
6
CONTINUOUS
10
67.6507
20
-58.1915
11
67.6424
21
-58.188
0
LINE
8
BLACK
6
CONTINUOUS
10
67.6424
20
-58.188
11
67.634
21
-58.1845
0
LINE
8
BLACK
6
CONTINUOUS
10
67.634
20
-58.1845
11
67.6254
21
-58.1799
0
LINE
8
BLACK
6
CONTINUOUS
10
67.6254
20
-58.1799
11
67.6254
21
-58.1799
0
LINE
8
BLACK
6
CONTINUOUS
10
67.6254
20
-58.1799
11
67.6254
21
-58.1799
0
LINE
8
BLACK
6
CONTINUOUS
10
67.6254
20
-58.1799
11
67.6242
21
-58.1793
0
LINE
8
BLACK
6
CONTINUOUS
10
67.6242
20
-58.1793
11
67.6167
21
-58.1742
0
LINE
8
BLACK
6
CONTINUOUS
10
67.6167
20
-58.1742
11
67.6091
21
-58.1691
0
LINE
8
BLACK
6
CONTINUOUS
10
67.6091
20
-58.1691
11
67.6016
21
-58.163
0
LINE
8
BLACK
6
CONTINUOUS
10
67.6016
20
-58.163
11
67.6005
21
-58.1621
0
LINE
8
BLACK
6
CONTINUOUS
10
67.6005
20
-58.1621
11
67.5942
21
-58.1556
0
LINE
8
BLACK
6
CONTINUOUS
10
67.5942
20
-58.1556
11
67.5877
21
-58.1492
0
LINE
8
BLACK
6
CONTINUOUS
10
67.5877
20
-58.1492
11
67.5815
21
-58.1417
0
LINE
8
BLACK
6
CONTINUOUS
10
67.5815
20
-58.1417
11
67.5806
21
-58.1406
0
LINE
8
BLACK
6
CONTINUOUS
10
67.5806
20
-58.1406
11
67.5756
21
-58.133
0
LINE
8
BLACK
6
CONTINUOUS
10
67.5756
20
-58.133
11
67.5706
21
-58.1255
0
LINE
8
BLACK
6
CONTINUOUS
10
67.5706
20
-58.1255
11
67.5659
21
-58.117
0
LINE
8
BLACK
6
CONTINUOUS
10
67.5659
20
-58.117
11
67.5659
21
-58.1169
0
LINE
8
BLACK
6
CONTINUOUS
10
67.5659
20
-58.1169
11
67.5659
21
-58.1169
0
LINE
8
BLACK
6
CONTINUOUS
10
67.5659
20
-58.1169
11
67.5653
21
-58.1157
0
LINE
8
BLACK
6
CONTINUOUS
10
67.5653
20
-58.1157
11
67.5619
21
-58.1073
0
LINE
8
BLACK
6
CONTINUOUS
10
67.5619
20
-58.1073
11
67.5584
21
-58.099
0
LINE
8
BLACK
6
CONTINUOUS
10
67.5584
20
-58.099
11
67.5555
21
-58.0896
0
LINE
8
BLACK
6
CONTINUOUS
10
67.5555
20
-58.0896
11
67.5555
21
-58.0896
0
LINE
8
BLACK
6
CONTINUOUS
10
67.5555
20
-58.0896
11
67.5555
21
-58.0896
0
LINE
8
BLACK
6
CONTINUOUS
10
67.5555
20
-58.0896
11
67.5551
21
-58.0883
0
LINE
8
BLACK
6
CONTINUOUS
10
67.5551
20
-58.0883
11
67.5534
21
-58.0794
0
LINE
8
BLACK
6
CONTINUOUS
10
67.5534
20
-58.0794
11
67.5516
21
-58.0705
0
LINE
8
BLACK
6
CONTINUOUS
10
67.5516
20
-58.0705
11
67.5505
21
-58.0608
0
LINE
8
BLACK
6
CONTINUOUS
10
67.5505
20
-58.0608
11
67.5504
21
-58.0594
0
LINE
8
BLACK
6
CONTINUOUS
10
67.5504
20
-58.0594
11
67.5505
21
-58.0504
0
LINE
8
BLACK
6
CONTINUOUS
10
67.5505
20
-58.0504
11
67.5504
21
-58.0413
0
LINE
8
BLACK
6
CONTINUOUS
10
67.5504
20
-58.0413
11
67.5513
21
-58.0316
0
LINE
8
BLACK
6
CONTINUOUS
10
67.5513
20
-58.0316
11
67.5514
21
-58.0302
0
LINE
8
BLACK
6
CONTINUOUS
10
67.5514
20
-58.0302
11
67.5532
21
-58.0214
0
LINE
8
BLACK
6
CONTINUOUS
10
67.5532
20
-58.0214
11
67.555
21
-58.0124
0
LINE
8
BLACK
6
CONTINUOUS
10
67.555
20
-58.0124
11
67.5577
21
-58.003
0
LINE
8
BLACK
6
CONTINUOUS
10
67.5577
20
-58.003
11
67.5581
21
-58.0017
0
LINE
8
BLACK
6
CONTINUOUS
10
67.5581
20
-58.0017
11
67.5616
21
-57.9934
0
LINE
8
BLACK
6
CONTINUOUS
10
67.5616
20
-57.9934
11
67.565
21
-57.9849
0
LINE
8
BLACK
6
CONTINUOUS
10
67.565
20
-57.9849
11
67.5695
21
-57.9763
0
LINE
8
BLACK
6
CONTINUOUS
10
67.5695
20
-57.9763
11
67.5702
21
-57.9751
0
LINE
8
BLACK
6
CONTINUOUS
10
67.5702
20
-57.9751
11
67.5752
21
-57.9676
0
LINE
8
BLACK
6
CONTINUOUS
10
67.5752
20
-57.9676
11
67.5802
21
-57.96
0
LINE
8
BLACK
6
CONTINUOUS
10
67.5802
20
-57.96
11
67.5863
21
-57.9524
0
LINE
8
BLACK
6
CONTINUOUS
10
67.5863
20
-57.9524
11
67.5872
21
-57.9513
0
LINE
8
BLACK
6
CONTINUOUS
10
67.5872
20
-57.9513
11
67.5937
21
-57.9449
0
LINE
8
BLACK
6
CONTINUOUS
10
67.5937
20
-57.9449
11
67.6
21
-57.9384
0
LINE
8
BLACK
6
CONTINUOUS
10
67.6
20
-57.9384
11
67.6075
21
-57.9321
0
LINE
8
BLACK
6
CONTINUOUS
10
67.6075
20
-57.9321
11
67.6075
21
-57.9321
0
LINE
8
BLACK
6
CONTINUOUS
10
67.6075
20
-57.9321
11
67.6075
21
-57.9321
0
LINE
8
BLACK
6
CONTINUOUS
10
67.6075
20
-57.9321
11
67.6085
21
-57.9312
0
LINE
8
BLACK
6
CONTINUOUS
10
67.6085
20
-57.9312
11
67.6161
21
-57.9262
0
LINE
8
BLACK
6
CONTINUOUS
10
67.6161
20
-57.9262
11
67.6236
21
-57.9211
0
LINE
8
BLACK
6
CONTINUOUS
10
67.6236
20
-57.9211
11
67.6321
21
-57.9164
0
LINE
8
BLACK
6
CONTINUOUS
10
67.6321
20
-57.9164
11
67.6321
21
-57.9164
0
LINE
8
BLACK
6
CONTINUOUS
10
67.6321
20
-57.9164
11
67.6321
21
-57.9164
0
LINE
8
BLACK
6
CONTINUOUS
10
67.6321
20
-57.9164
11
67.6321
21
-57.9164
0
LINE
8
BLACK
6
CONTINUOUS
10
67.6321
20
-57.9164
11
67.6334
21
-57.9157
0
LINE
8
BLACK
6
CONTINUOUS
10
67.6334
20
-57.9157
11
67.6417
21
-57.9123
0
LINE
8
BLACK
6
CONTINUOUS
10
67.6417
20
-57.9123
11
67.6501
21
-57.9087
0
LINE
8
BLACK
6
CONTINUOUS
10
67.6501
20
-57.9087
11
67.6594
21
-57.9058
0
LINE
8
BLACK
6
CONTINUOUS
10
67.6594
20
-57.9058
11
67.6594
21
-57.9058
0
LINE
8
BLACK
6
CONTINUOUS
10
67.6594
20
-57.9058
11
67.6594
21
-57.9058
0
LINE
8
BLACK
6
CONTINUOUS
10
67.6594
20
-57.9058
11
67.6594
21
-57.9058
0
LINE
8
BLACK
6
CONTINUOUS
10
67.6594
20
-57.9058
11
67.6607
21
-57.9054
0
LINE
8
BLACK
6
CONTINUOUS
10
67.6607
20
-57.9054
11
67.6695
21
-57.9036
0
LINE
8
BLACK
6
CONTINUOUS
10
67.6695
20
-57.9036
11
67.6785
21
-57.9017
0
LINE
8
BLACK
6
CONTINUOUS
10
67.6785
20
-57.9017
11
67.6801
21
-57.9015
0
LINE
8
BLACK
6
CONTINUOUS
10
67.6801
20
-57.9015
11
67.6804
21
-57.9014
0
LINE
8
BLACK
6
CONTINUOUS
10
67.6804
20
-57.9014
11
67.6841
21
-57.9011
0
LINE
8
BLACK
6
CONTINUOUS
10
67.6841
20
-57.9011
11
67.6882
21
-57.9006
0
LINE
8
BLACK
6
CONTINUOUS
10
67.6882
20
-57.9006
11
67.6895
21
-57.9005
0
LINE
8
BLACK
6
CONTINUOUS
10
67.6895
20
-57.9005
11
67.6902
21
-57.9005
0
LINE
8
BLACK
6
CONTINUOUS
10
67.6902
20
-57.9005
11
67.6902
21
-57.9005
0
LINE
8
BLACK
6
CONTINUOUS
10
67.6902
20
-57.9005
11
67.6902
21
-57.9005
0
LINE
8
BLACK
6
CONTINUOUS
10
67.6902
20
-57.9005
11
67.6903
21
-57.9005
0
LINE
8
BLACK
6
CONTINUOUS
10
67.6903
20
-57.9005
11
67.6951
21
-57.9
0
LINE
8
BLACK
6
CONTINUOUS
10
67.6951
20
-57.9
11
67.7049
21
-57.9
0
LINE
8
BLACK
6
CONTINUOUS
10
67.7049
20
-57.9
11
67.7097
21
-57.9005
  0
ENDSEC
  0
EOF
